<?xml version="1.0" encoding="UTF-8" ?>
<svg xmlns="http://www.w3.org/2000/svg" width="9587" height="1080" version="1.1">
<line x1="100" y1="100" x2="100" y2="980" stroke="#7f7f7f" stroke-width="1"/>
<line x1="160" y1="100" x2="160" y2="980" stroke="#7f7f7f" stroke-width="1"/>
<line x1="220" y1="100" x2="220" y2="980" stroke="#7f7f7f" stroke-width="1"/>
<line x1="280" y1="100" x2="280" y2="980" stroke="#7f7f7f" stroke-width="1"/>
<line x1="340" y1="100" x2="340" y2="980" stroke="#7f7f7f" stroke-width="1"/>
<line x1="400" y1="100" x2="400" y2="980" stroke="#7f7f7f" stroke-width="1"/>
<line x1="460" y1="100" x2="460" y2="980" stroke="#7f7f7f" stroke-width="1"/>
<line x1="520" y1="100" x2="520" y2="980" stroke="#7f7f7f" stroke-width="1"/>
<line x1="580" y1="100" x2="580" y2="980" stroke="#7f7f7f" stroke-width="1"/>
<line x1="640" y1="100" x2="640" y2="980" stroke="#7f7f7f" stroke-width="1"/>
<line x1="700" y1="100" x2="700" y2="980" stroke="#7f7f7f" stroke-width="1"/>
<line x1="760" y1="100" x2="760" y2="980" stroke="#7f7f7f" stroke-width="1"/>
<line x1="820" y1="100" x2="820" y2="980" stroke="#7f7f7f" stroke-width="1"/>
<line x1="880" y1="100" x2="880" y2="980" stroke="#7f7f7f" stroke-width="1"/>
<line x1="940" y1="100" x2="940" y2="980" stroke="#7f7f7f" stroke-width="1"/>
<line x1="1000" y1="100" x2="1000" y2="980" stroke="#7f7f7f" stroke-width="1"/>
<line x1="1060" y1="100" x2="1060" y2="980" stroke="#7f7f7f" stroke-width="1"/>
<line x1="1120" y1="100" x2="1120" y2="980" stroke="#7f7f7f" stroke-width="1"/>
<line x1="1180" y1="100" x2="1180" y2="980" stroke="#7f7f7f" stroke-width="1"/>
<line x1="1240" y1="100" x2="1240" y2="980" stroke="#7f7f7f" stroke-width="1"/>
<line x1="1300" y1="100" x2="1300" y2="980" stroke="#7f7f7f" stroke-width="1"/>
<line x1="1360" y1="100" x2="1360" y2="980" stroke="#7f7f7f" stroke-width="1"/>
<line x1="1420" y1="100" x2="1420" y2="980" stroke="#7f7f7f" stroke-width="1"/>
<line x1="1480" y1="100" x2="1480" y2="980" stroke="#7f7f7f" stroke-width="1"/>
<line x1="1540" y1="100" x2="1540" y2="980" stroke="#7f7f7f" stroke-width="1"/>
<line x1="1600" y1="100" x2="1600" y2="980" stroke="#7f7f7f" stroke-width="1"/>
<line x1="1660" y1="100" x2="1660" y2="980" stroke="#7f7f7f" stroke-width="1"/>
<line x1="1720" y1="100" x2="1720" y2="980" stroke="#7f7f7f" stroke-width="1"/>
<line x1="1780" y1="100" x2="1780" y2="980" stroke="#7f7f7f" stroke-width="1"/>
<line x1="1840" y1="100" x2="1840" y2="980" stroke="#7f7f7f" stroke-width="1"/>
<line x1="1900" y1="100" x2="1900" y2="980" stroke="#7f7f7f" stroke-width="1"/>
<line x1="1960" y1="100" x2="1960" y2="980" stroke="#7f7f7f" stroke-width="1"/>
<line x1="2020" y1="100" x2="2020" y2="980" stroke="#7f7f7f" stroke-width="1"/>
<line x1="2080" y1="100" x2="2080" y2="980" stroke="#7f7f7f" stroke-width="1"/>
<line x1="2140" y1="100" x2="2140" y2="980" stroke="#7f7f7f" stroke-width="1"/>
<line x1="2200" y1="100" x2="2200" y2="980" stroke="#7f7f7f" stroke-width="1"/>
<line x1="2260" y1="100" x2="2260" y2="980" stroke="#7f7f7f" stroke-width="1"/>
<line x1="2320" y1="100" x2="2320" y2="980" stroke="#7f7f7f" stroke-width="1"/>
<line x1="2380" y1="100" x2="2380" y2="980" stroke="#7f7f7f" stroke-width="1"/>
<line x1="2440" y1="100" x2="2440" y2="980" stroke="#7f7f7f" stroke-width="1"/>
<line x1="2500" y1="100" x2="2500" y2="980" stroke="#7f7f7f" stroke-width="1"/>
<line x1="2560" y1="100" x2="2560" y2="980" stroke="#7f7f7f" stroke-width="1"/>
<line x1="2620" y1="100" x2="2620" y2="980" stroke="#7f7f7f" stroke-width="1"/>
<line x1="2680" y1="100" x2="2680" y2="980" stroke="#7f7f7f" stroke-width="1"/>
<line x1="2740" y1="100" x2="2740" y2="980" stroke="#7f7f7f" stroke-width="1"/>
<line x1="2800" y1="100" x2="2800" y2="980" stroke="#7f7f7f" stroke-width="1"/>
<line x1="2860" y1="100" x2="2860" y2="980" stroke="#7f7f7f" stroke-width="1"/>
<line x1="2920" y1="100" x2="2920" y2="980" stroke="#7f7f7f" stroke-width="1"/>
<line x1="2980" y1="100" x2="2980" y2="980" stroke="#7f7f7f" stroke-width="1"/>
<line x1="3040" y1="100" x2="3040" y2="980" stroke="#7f7f7f" stroke-width="1"/>
<line x1="3100" y1="100" x2="3100" y2="980" stroke="#7f7f7f" stroke-width="1"/>
<line x1="3160" y1="100" x2="3160" y2="980" stroke="#7f7f7f" stroke-width="1"/>
<line x1="3220" y1="100" x2="3220" y2="980" stroke="#7f7f7f" stroke-width="1"/>
<line x1="3280" y1="100" x2="3280" y2="980" stroke="#7f7f7f" stroke-width="1"/>
<line x1="3340" y1="100" x2="3340" y2="980" stroke="#7f7f7f" stroke-width="1"/>
<line x1="3400" y1="100" x2="3400" y2="980" stroke="#7f7f7f" stroke-width="1"/>
<line x1="3460" y1="100" x2="3460" y2="980" stroke="#7f7f7f" stroke-width="1"/>
<line x1="3520" y1="100" x2="3520" y2="980" stroke="#7f7f7f" stroke-width="1"/>
<line x1="3580" y1="100" x2="3580" y2="980" stroke="#7f7f7f" stroke-width="1"/>
<line x1="3640" y1="100" x2="3640" y2="980" stroke="#7f7f7f" stroke-width="1"/>
<line x1="3700" y1="100" x2="3700" y2="980" stroke="#7f7f7f" stroke-width="1"/>
<line x1="3760" y1="100" x2="3760" y2="980" stroke="#7f7f7f" stroke-width="1"/>
<line x1="3820" y1="100" x2="3820" y2="980" stroke="#7f7f7f" stroke-width="1"/>
<line x1="3880" y1="100" x2="3880" y2="980" stroke="#7f7f7f" stroke-width="1"/>
<line x1="3940" y1="100" x2="3940" y2="980" stroke="#7f7f7f" stroke-width="1"/>
<line x1="4000" y1="100" x2="4000" y2="980" stroke="#7f7f7f" stroke-width="1"/>
<line x1="4060" y1="100" x2="4060" y2="980" stroke="#7f7f7f" stroke-width="1"/>
<line x1="4120" y1="100" x2="4120" y2="980" stroke="#7f7f7f" stroke-width="1"/>
<line x1="4180" y1="100" x2="4180" y2="980" stroke="#7f7f7f" stroke-width="1"/>
<line x1="4240" y1="100" x2="4240" y2="980" stroke="#7f7f7f" stroke-width="1"/>
<line x1="4300" y1="100" x2="4300" y2="980" stroke="#7f7f7f" stroke-width="1"/>
<line x1="4360" y1="100" x2="4360" y2="980" stroke="#7f7f7f" stroke-width="1"/>
<line x1="4420" y1="100" x2="4420" y2="980" stroke="#7f7f7f" stroke-width="1"/>
<line x1="4480" y1="100" x2="4480" y2="980" stroke="#7f7f7f" stroke-width="1"/>
<line x1="4540" y1="100" x2="4540" y2="980" stroke="#7f7f7f" stroke-width="1"/>
<line x1="4600" y1="100" x2="4600" y2="980" stroke="#7f7f7f" stroke-width="1"/>
<line x1="4660" y1="100" x2="4660" y2="980" stroke="#7f7f7f" stroke-width="1"/>
<line x1="4720" y1="100" x2="4720" y2="980" stroke="#7f7f7f" stroke-width="1"/>
<line x1="4780" y1="100" x2="4780" y2="980" stroke="#7f7f7f" stroke-width="1"/>
<line x1="4840" y1="100" x2="4840" y2="980" stroke="#7f7f7f" stroke-width="1"/>
<line x1="4900" y1="100" x2="4900" y2="980" stroke="#7f7f7f" stroke-width="1"/>
<line x1="4960" y1="100" x2="4960" y2="980" stroke="#7f7f7f" stroke-width="1"/>
<line x1="5020" y1="100" x2="5020" y2="980" stroke="#7f7f7f" stroke-width="1"/>
<line x1="5080" y1="100" x2="5080" y2="980" stroke="#7f7f7f" stroke-width="1"/>
<line x1="5140" y1="100" x2="5140" y2="980" stroke="#7f7f7f" stroke-width="1"/>
<line x1="5200" y1="100" x2="5200" y2="980" stroke="#7f7f7f" stroke-width="1"/>
<line x1="5260" y1="100" x2="5260" y2="980" stroke="#7f7f7f" stroke-width="1"/>
<line x1="5320" y1="100" x2="5320" y2="980" stroke="#7f7f7f" stroke-width="1"/>
<line x1="5380" y1="100" x2="5380" y2="980" stroke="#7f7f7f" stroke-width="1"/>
<line x1="5440" y1="100" x2="5440" y2="980" stroke="#7f7f7f" stroke-width="1"/>
<line x1="5500" y1="100" x2="5500" y2="980" stroke="#7f7f7f" stroke-width="1"/>
<line x1="5560" y1="100" x2="5560" y2="980" stroke="#7f7f7f" stroke-width="1"/>
<line x1="5620" y1="100" x2="5620" y2="980" stroke="#7f7f7f" stroke-width="1"/>
<line x1="5680" y1="100" x2="5680" y2="980" stroke="#7f7f7f" stroke-width="1"/>
<line x1="5740" y1="100" x2="5740" y2="980" stroke="#7f7f7f" stroke-width="1"/>
<line x1="5800" y1="100" x2="5800" y2="980" stroke="#7f7f7f" stroke-width="1"/>
<line x1="5860" y1="100" x2="5860" y2="980" stroke="#7f7f7f" stroke-width="1"/>
<line x1="5920" y1="100" x2="5920" y2="980" stroke="#7f7f7f" stroke-width="1"/>
<line x1="5980" y1="100" x2="5980" y2="980" stroke="#7f7f7f" stroke-width="1"/>
<line x1="6040" y1="100" x2="6040" y2="980" stroke="#7f7f7f" stroke-width="1"/>
<line x1="6100" y1="100" x2="6100" y2="980" stroke="#7f7f7f" stroke-width="1"/>
<line x1="6160" y1="100" x2="6160" y2="980" stroke="#7f7f7f" stroke-width="1"/>
<line x1="6220" y1="100" x2="6220" y2="980" stroke="#7f7f7f" stroke-width="1"/>
<line x1="6280" y1="100" x2="6280" y2="980" stroke="#7f7f7f" stroke-width="1"/>
<line x1="6340" y1="100" x2="6340" y2="980" stroke="#7f7f7f" stroke-width="1"/>
<line x1="6400" y1="100" x2="6400" y2="980" stroke="#7f7f7f" stroke-width="1"/>
<line x1="6460" y1="100" x2="6460" y2="980" stroke="#7f7f7f" stroke-width="1"/>
<line x1="6520" y1="100" x2="6520" y2="980" stroke="#7f7f7f" stroke-width="1"/>
<line x1="6580" y1="100" x2="6580" y2="980" stroke="#7f7f7f" stroke-width="1"/>
<line x1="6640" y1="100" x2="6640" y2="980" stroke="#7f7f7f" stroke-width="1"/>
<line x1="6700" y1="100" x2="6700" y2="980" stroke="#7f7f7f" stroke-width="1"/>
<line x1="6760" y1="100" x2="6760" y2="980" stroke="#7f7f7f" stroke-width="1"/>
<line x1="6820" y1="100" x2="6820" y2="980" stroke="#7f7f7f" stroke-width="1"/>
<line x1="6880" y1="100" x2="6880" y2="980" stroke="#7f7f7f" stroke-width="1"/>
<line x1="6940" y1="100" x2="6940" y2="980" stroke="#7f7f7f" stroke-width="1"/>
<line x1="7000" y1="100" x2="7000" y2="980" stroke="#7f7f7f" stroke-width="1"/>
<line x1="7060" y1="100" x2="7060" y2="980" stroke="#7f7f7f" stroke-width="1"/>
<line x1="7120" y1="100" x2="7120" y2="980" stroke="#7f7f7f" stroke-width="1"/>
<line x1="7180" y1="100" x2="7180" y2="980" stroke="#7f7f7f" stroke-width="1"/>
<line x1="7240" y1="100" x2="7240" y2="980" stroke="#7f7f7f" stroke-width="1"/>
<line x1="7300" y1="100" x2="7300" y2="980" stroke="#7f7f7f" stroke-width="1"/>
<line x1="7360" y1="100" x2="7360" y2="980" stroke="#7f7f7f" stroke-width="1"/>
<line x1="7420" y1="100" x2="7420" y2="980" stroke="#7f7f7f" stroke-width="1"/>
<line x1="7480" y1="100" x2="7480" y2="980" stroke="#7f7f7f" stroke-width="1"/>
<line x1="7540" y1="100" x2="7540" y2="980" stroke="#7f7f7f" stroke-width="1"/>
<line x1="7600" y1="100" x2="7600" y2="980" stroke="#7f7f7f" stroke-width="1"/>
<line x1="7660" y1="100" x2="7660" y2="980" stroke="#7f7f7f" stroke-width="1"/>
<line x1="7720" y1="100" x2="7720" y2="980" stroke="#7f7f7f" stroke-width="1"/>
<line x1="7780" y1="100" x2="7780" y2="980" stroke="#7f7f7f" stroke-width="1"/>
<line x1="7840" y1="100" x2="7840" y2="980" stroke="#7f7f7f" stroke-width="1"/>
<line x1="7900" y1="100" x2="7900" y2="980" stroke="#7f7f7f" stroke-width="1"/>
<line x1="7960" y1="100" x2="7960" y2="980" stroke="#7f7f7f" stroke-width="1"/>
<line x1="8020" y1="100" x2="8020" y2="980" stroke="#7f7f7f" stroke-width="1"/>
<line x1="8080" y1="100" x2="8080" y2="980" stroke="#7f7f7f" stroke-width="1"/>
<line x1="8140" y1="100" x2="8140" y2="980" stroke="#7f7f7f" stroke-width="1"/>
<line x1="8200" y1="100" x2="8200" y2="980" stroke="#7f7f7f" stroke-width="1"/>
<line x1="8260" y1="100" x2="8260" y2="980" stroke="#7f7f7f" stroke-width="1"/>
<line x1="8320" y1="100" x2="8320" y2="980" stroke="#7f7f7f" stroke-width="1"/>
<line x1="8380" y1="100" x2="8380" y2="980" stroke="#7f7f7f" stroke-width="1"/>
<line x1="8440" y1="100" x2="8440" y2="980" stroke="#7f7f7f" stroke-width="1"/>
<line x1="8500" y1="100" x2="8500" y2="980" stroke="#7f7f7f" stroke-width="1"/>
<line x1="8560" y1="100" x2="8560" y2="980" stroke="#7f7f7f" stroke-width="1"/>
<line x1="8620" y1="100" x2="8620" y2="980" stroke="#7f7f7f" stroke-width="1"/>
<line x1="8680" y1="100" x2="8680" y2="980" stroke="#7f7f7f" stroke-width="1"/>
<line x1="8740" y1="100" x2="8740" y2="980" stroke="#7f7f7f" stroke-width="1"/>
<line x1="8800" y1="100" x2="8800" y2="980" stroke="#7f7f7f" stroke-width="1"/>
<line x1="8860" y1="100" x2="8860" y2="980" stroke="#7f7f7f" stroke-width="1"/>
<line x1="8920" y1="100" x2="8920" y2="980" stroke="#7f7f7f" stroke-width="1"/>
<line x1="8980" y1="100" x2="8980" y2="980" stroke="#7f7f7f" stroke-width="1"/>
<line x1="9040" y1="100" x2="9040" y2="980" stroke="#7f7f7f" stroke-width="1"/>
<line x1="9100" y1="100" x2="9100" y2="980" stroke="#7f7f7f" stroke-width="1"/>
<line x1="9160" y1="100" x2="9160" y2="980" stroke="#7f7f7f" stroke-width="1"/>
<line x1="9220" y1="100" x2="9220" y2="980" stroke="#7f7f7f" stroke-width="1"/>
<line x1="9280" y1="100" x2="9280" y2="980" stroke="#7f7f7f" stroke-width="1"/>
<line x1="9340" y1="100" x2="9340" y2="980" stroke="#7f7f7f" stroke-width="1"/>
<line x1="9400" y1="100" x2="9400" y2="980" stroke="#7f7f7f" stroke-width="1"/>
<line x1="9460" y1="100" x2="9460" y2="980" stroke="#7f7f7f" stroke-width="1"/>
	<rect x="101" y="110" width="1" height="10" style="fill:#0000ff"/><!-- FE_Version_Checker box2: 1 - 2 -->
	<rect x="101" y="120" width="2" height="10" style="fill:#0000ff"/><!-- Vcs_Version_Checker box2: 1 - 3 -->
	<rect x="101" y="130" width="7" height="10" style="fill:#0000ff"/><!-- BE_Version_Checker box2: 1 - 8 -->
	<rect x="101" y="140" width="9" height="10" style="fill:#0000ff"/><!-- VERDI_Version_Checker box2: 1 - 10 -->
	<rect x="110" y="140" width="1" height="10" style="fill:#ff00ff"/><!-- VERDI_Version_Checker box3: 10 - 11 -->
	<rect x="111" y="150" width="47" height="10" style="fill:#00ff00"/><!-- Target_Config box1: 11 - 58 -->
	<rect x="158" y="150" width="1" height="10" style="fill:#0000ff"/><!-- Target_Config box2: 58 - 59 -->
	<rect x="217" y="160" width="2" height="10" style="fill:#0000ff"/><!-- Target_Config_Analyzer box2: 117 - 119 -->
	<rect x="219" y="170" width="29" height="10" style="fill:#00ff00"/><!-- design_Fs_Macro box1: 119 - 148 -->
	<rect x="248" y="170" width="2" height="10" style="fill:#0000ff"/><!-- design_Fs_Macro box2: 148 - 150 -->
	<rect x="280" y="180" width="21" height="10" style="fill:#00ff00"/><!-- vcs_splitter_VCS_Task_Builder box1: 180 - 201 -->
	<rect x="301" y="180" width="42" height="10" style="fill:#0000ff"/><!-- vcs_splitter_VCS_Task_Builder box2: 201 - 243 -->
	<rect x="343" y="190" width="9" height="10" style="fill:#0000ff"/><!-- VCS_Task_Analyzer box2: 243 - 252 -->
	<rect x="352" y="200" width="6" height="10" style="fill:#00ff00"/><!-- backend_default_Intermediate_Profiling_Results_Analyzer_VCSAnalyzer box1: 252 - 258 -->
	<rect x="358" y="200" width="4" height="10" style="fill:#0000ff"/><!-- backend_default_Intermediate_Profiling_Results_Analyzer_VCSAnalyzer box2: 258 - 262 -->
	<rect x="352" y="210" width="1" height="10" style="fill:#ff0000"/><!-- design_Default_RTL_GroupBundle_12_Synthesis box0: 252 - 253 -->
	<rect x="353" y="210" width="42" height="10" style="fill:#00ff00"/><!-- design_Default_RTL_GroupBundle_12_Synthesis box1: 253 - 295 -->
	<rect x="395" y="210" width="5" height="10" style="fill:#0000ff"/><!-- design_Default_RTL_GroupBundle_12_Synthesis box2: 295 - 300 -->
	<rect x="400" y="210" width="1" height="10" style="fill:#ff00ff"/><!-- design_Default_RTL_GroupBundle_12_Synthesis box3: 300 - 301 -->
	<rect x="352" y="220" width="1" height="10" style="fill:#ff0000"/><!-- RhinoFsdb_Builder box0: 252 - 253 -->
	<rect x="353" y="220" width="43" height="10" style="fill:#00ff00"/><!-- RhinoFsdb_Builder box1: 253 - 296 -->
	<rect x="396" y="220" width="1" height="10" style="fill:#0000ff"/><!-- RhinoFsdb_Builder box2: 296 - 297 -->
	<rect x="397" y="220" width="1" height="10" style="fill:#ff00ff"/><!-- RhinoFsdb_Builder box3: 297 - 298 -->
	<rect x="352" y="230" width="1" height="10" style="fill:#ff0000"/><!-- Verdi_Compilation box0: 252 - 253 -->
	<rect x="353" y="230" width="43" height="10" style="fill:#00ff00"/><!-- Verdi_Compilation box1: 253 - 296 -->
	<rect x="396" y="230" width="1" height="10" style="fill:#0000ff"/><!-- Verdi_Compilation box2: 296 - 297 -->
	<rect x="397" y="230" width="1" height="10" style="fill:#ff00ff"/><!-- Verdi_Compilation box3: 297 - 298 -->
	<rect x="352" y="240" width="1" height="10" style="fill:#ff0000"/><!-- design_Default_RTL_GroupBundle_2_Synthesis box0: 252 - 253 -->
	<rect x="353" y="240" width="43" height="10" style="fill:#00ff00"/><!-- design_Default_RTL_GroupBundle_2_Synthesis box1: 253 - 296 -->
	<rect x="396" y="240" width="2" height="10" style="fill:#0000ff"/><!-- design_Default_RTL_GroupBundle_2_Synthesis box2: 296 - 298 -->
	<rect x="352" y="250" width="1" height="10" style="fill:#ff0000"/><!-- design_Default_RTL_GroupBundle_21_Synthesis box0: 252 - 253 -->
	<rect x="353" y="250" width="43" height="10" style="fill:#00ff00"/><!-- design_Default_RTL_GroupBundle_21_Synthesis box1: 253 - 296 -->
	<rect x="396" y="250" width="3" height="10" style="fill:#0000ff"/><!-- design_Default_RTL_GroupBundle_21_Synthesis box2: 296 - 299 -->
	<rect x="399" y="250" width="1" height="10" style="fill:#ff00ff"/><!-- design_Default_RTL_GroupBundle_21_Synthesis box3: 299 - 300 -->
	<rect x="352" y="260" width="1" height="10" style="fill:#ff0000"/><!-- design_Default_RTL_GroupBundle_25_Synthesis box0: 252 - 253 -->
	<rect x="353" y="260" width="43" height="10" style="fill:#00ff00"/><!-- design_Default_RTL_GroupBundle_25_Synthesis box1: 253 - 296 -->
	<rect x="396" y="260" width="3" height="10" style="fill:#0000ff"/><!-- design_Default_RTL_GroupBundle_25_Synthesis box2: 296 - 299 -->
	<rect x="399" y="260" width="1" height="10" style="fill:#ff00ff"/><!-- design_Default_RTL_GroupBundle_25_Synthesis box3: 299 - 300 -->
	<rect x="352" y="270" width="1" height="10" style="fill:#ff0000"/><!-- design_Default_RTL_GroupBundle_32_Synthesis box0: 252 - 253 -->
	<rect x="353" y="270" width="43" height="10" style="fill:#00ff00"/><!-- design_Default_RTL_GroupBundle_32_Synthesis box1: 253 - 296 -->
	<rect x="396" y="270" width="3" height="10" style="fill:#0000ff"/><!-- design_Default_RTL_GroupBundle_32_Synthesis box2: 296 - 299 -->
	<rect x="399" y="270" width="1" height="10" style="fill:#ff00ff"/><!-- design_Default_RTL_GroupBundle_32_Synthesis box3: 299 - 300 -->
	<rect x="352" y="280" width="1" height="10" style="fill:#ff0000"/><!-- design_Default_RTL_GroupBundle_11_Synthesis box0: 252 - 253 -->
	<rect x="353" y="280" width="43" height="10" style="fill:#00ff00"/><!-- design_Default_RTL_GroupBundle_11_Synthesis box1: 253 - 296 -->
	<rect x="396" y="280" width="4" height="10" style="fill:#0000ff"/><!-- design_Default_RTL_GroupBundle_11_Synthesis box2: 296 - 300 -->
	<rect x="400" y="280" width="1" height="10" style="fill:#ff00ff"/><!-- design_Default_RTL_GroupBundle_11_Synthesis box3: 300 - 301 -->
	<rect x="352" y="290" width="1" height="10" style="fill:#ff0000"/><!-- design_Default_RTL_GroupBundle_14_Synthesis box0: 252 - 253 -->
	<rect x="353" y="290" width="43" height="10" style="fill:#00ff00"/><!-- design_Default_RTL_GroupBundle_14_Synthesis box1: 253 - 296 -->
	<rect x="396" y="290" width="5" height="10" style="fill:#0000ff"/><!-- design_Default_RTL_GroupBundle_14_Synthesis box2: 296 - 301 -->
	<rect x="352" y="300" width="1" height="10" style="fill:#ff0000"/><!-- design_Default_RTL_GroupBundle_7_Synthesis box0: 252 - 253 -->
	<rect x="353" y="300" width="43" height="10" style="fill:#00ff00"/><!-- design_Default_RTL_GroupBundle_7_Synthesis box1: 253 - 296 -->
	<rect x="396" y="300" width="5" height="10" style="fill:#0000ff"/><!-- design_Default_RTL_GroupBundle_7_Synthesis box2: 296 - 301 -->
	<rect x="352" y="310" width="1" height="10" style="fill:#ff0000"/><!-- design_Default_RTL_GroupBundle_6_Synthesis box0: 252 - 253 -->
	<rect x="353" y="310" width="43" height="10" style="fill:#00ff00"/><!-- design_Default_RTL_GroupBundle_6_Synthesis box1: 253 - 296 -->
	<rect x="396" y="310" width="6" height="10" style="fill:#0000ff"/><!-- design_Default_RTL_GroupBundle_6_Synthesis box2: 296 - 302 -->
	<rect x="352" y="320" width="1" height="10" style="fill:#ff0000"/><!-- design_Default_RTL_GroupBundle_28_Synthesis box0: 252 - 253 -->
	<rect x="353" y="320" width="43" height="10" style="fill:#00ff00"/><!-- design_Default_RTL_GroupBundle_28_Synthesis box1: 253 - 296 -->
	<rect x="396" y="320" width="9" height="10" style="fill:#0000ff"/><!-- design_Default_RTL_GroupBundle_28_Synthesis box2: 296 - 305 -->
	<rect x="352" y="330" width="1" height="10" style="fill:#ff0000"/><!-- design_Default_RTL_GroupBundle_8_Synthesis box0: 252 - 253 -->
	<rect x="353" y="330" width="44" height="10" style="fill:#00ff00"/><!-- design_Default_RTL_GroupBundle_8_Synthesis box1: 253 - 297 -->
	<rect x="397" y="330" width="7" height="10" style="fill:#0000ff"/><!-- design_Default_RTL_GroupBundle_8_Synthesis box2: 297 - 304 -->
	<rect x="352" y="340" width="1" height="10" style="fill:#ff0000"/><!-- design_Default_RTL_GroupBundle_1_Synthesis box0: 252 - 253 -->
	<rect x="353" y="340" width="44" height="10" style="fill:#00ff00"/><!-- design_Default_RTL_GroupBundle_1_Synthesis box1: 253 - 297 -->
	<rect x="397" y="340" width="17" height="10" style="fill:#0000ff"/><!-- design_Default_RTL_GroupBundle_1_Synthesis box2: 297 - 314 -->
	<rect x="414" y="340" width="1" height="10" style="fill:#ff00ff"/><!-- design_Default_RTL_GroupBundle_1_Synthesis box3: 314 - 315 -->
	<rect x="352" y="350" width="1" height="10" style="fill:#ff0000"/><!-- design_Default_RTL_GroupBundle_5_Synthesis box0: 252 - 253 -->
	<rect x="353" y="350" width="46" height="10" style="fill:#00ff00"/><!-- design_Default_RTL_GroupBundle_5_Synthesis box1: 253 - 299 -->
	<rect x="399" y="350" width="3" height="10" style="fill:#0000ff"/><!-- design_Default_RTL_GroupBundle_5_Synthesis box2: 299 - 302 -->
	<rect x="352" y="360" width="1" height="10" style="fill:#ff0000"/><!-- design_Default_RTL_GroupBundle_4_Synthesis box0: 252 - 253 -->
	<rect x="353" y="360" width="46" height="10" style="fill:#00ff00"/><!-- design_Default_RTL_GroupBundle_4_Synthesis box1: 253 - 299 -->
	<rect x="399" y="360" width="4" height="10" style="fill:#0000ff"/><!-- design_Default_RTL_GroupBundle_4_Synthesis box2: 299 - 303 -->
	<rect x="403" y="360" width="1" height="10" style="fill:#ff00ff"/><!-- design_Default_RTL_GroupBundle_4_Synthesis box3: 303 - 304 -->
	<rect x="352" y="370" width="1" height="10" style="fill:#ff0000"/><!-- design_Default_RTL_GroupBundle_17_Synthesis box0: 252 - 253 -->
	<rect x="353" y="370" width="46" height="10" style="fill:#00ff00"/><!-- design_Default_RTL_GroupBundle_17_Synthesis box1: 253 - 299 -->
	<rect x="399" y="370" width="5" height="10" style="fill:#0000ff"/><!-- design_Default_RTL_GroupBundle_17_Synthesis box2: 299 - 304 -->
	<rect x="352" y="380" width="1" height="10" style="fill:#ff0000"/><!-- design_Default_RTL_GroupBundle_24_Synthesis box0: 252 - 253 -->
	<rect x="353" y="380" width="46" height="10" style="fill:#00ff00"/><!-- design_Default_RTL_GroupBundle_24_Synthesis box1: 253 - 299 -->
	<rect x="399" y="380" width="8" height="10" style="fill:#0000ff"/><!-- design_Default_RTL_GroupBundle_24_Synthesis box2: 299 - 307 -->
	<rect x="352" y="390" width="1" height="10" style="fill:#ff0000"/><!-- design_Default_RTL_GroupBundle_15_Synthesis box0: 252 - 253 -->
	<rect x="353" y="390" width="48" height="10" style="fill:#00ff00"/><!-- design_Default_RTL_GroupBundle_15_Synthesis box1: 253 - 301 -->
	<rect x="401" y="390" width="5" height="10" style="fill:#0000ff"/><!-- design_Default_RTL_GroupBundle_15_Synthesis box2: 301 - 306 -->
	<rect x="352" y="400" width="1" height="10" style="fill:#ff0000"/><!-- design_Default_RTL_GroupBundle_27_Synthesis box0: 252 - 253 -->
	<rect x="353" y="400" width="48" height="10" style="fill:#00ff00"/><!-- design_Default_RTL_GroupBundle_27_Synthesis box1: 253 - 301 -->
	<rect x="401" y="400" width="7" height="10" style="fill:#0000ff"/><!-- design_Default_RTL_GroupBundle_27_Synthesis box2: 301 - 308 -->
	<rect x="352" y="410" width="1" height="10" style="fill:#ff0000"/><!-- design_Default_RTL_GroupBundle_3_Synthesis box0: 252 - 253 -->
	<rect x="353" y="410" width="49" height="10" style="fill:#00ff00"/><!-- design_Default_RTL_GroupBundle_3_Synthesis box1: 253 - 302 -->
	<rect x="402" y="410" width="3" height="10" style="fill:#0000ff"/><!-- design_Default_RTL_GroupBundle_3_Synthesis box2: 302 - 305 -->
	<rect x="352" y="420" width="1" height="10" style="fill:#ff0000"/><!-- design_Default_RTL_GroupBundle_26_Synthesis box0: 252 - 253 -->
	<rect x="353" y="420" width="49" height="10" style="fill:#00ff00"/><!-- design_Default_RTL_GroupBundle_26_Synthesis box1: 253 - 302 -->
	<rect x="402" y="420" width="12" height="10" style="fill:#0000ff"/><!-- design_Default_RTL_GroupBundle_26_Synthesis box2: 302 - 314 -->
	<rect x="414" y="420" width="1" height="10" style="fill:#ff00ff"/><!-- design_Default_RTL_GroupBundle_26_Synthesis box3: 314 - 315 -->
	<rect x="352" y="430" width="1" height="10" style="fill:#ff0000"/><!-- design_Default_RTL_GroupBundle_16_Synthesis box0: 252 - 253 -->
	<rect x="353" y="430" width="50" height="10" style="fill:#00ff00"/><!-- design_Default_RTL_GroupBundle_16_Synthesis box1: 253 - 303 -->
	<rect x="403" y="430" width="6" height="10" style="fill:#0000ff"/><!-- design_Default_RTL_GroupBundle_16_Synthesis box2: 303 - 309 -->
	<rect x="352" y="440" width="1" height="10" style="fill:#ff0000"/><!-- design_Default_RTL_GroupBundle_18_Synthesis box0: 252 - 253 -->
	<rect x="353" y="440" width="50" height="10" style="fill:#00ff00"/><!-- design_Default_RTL_GroupBundle_18_Synthesis box1: 253 - 303 -->
	<rect x="403" y="440" width="6" height="10" style="fill:#0000ff"/><!-- design_Default_RTL_GroupBundle_18_Synthesis box2: 303 - 309 -->
	<rect x="352" y="450" width="1" height="10" style="fill:#ff0000"/><!-- design_Default_RTL_GroupBundle_19_Synthesis box0: 252 - 253 -->
	<rect x="353" y="450" width="50" height="10" style="fill:#00ff00"/><!-- design_Default_RTL_GroupBundle_19_Synthesis box1: 253 - 303 -->
	<rect x="403" y="450" width="6" height="10" style="fill:#0000ff"/><!-- design_Default_RTL_GroupBundle_19_Synthesis box2: 303 - 309 -->
	<rect x="352" y="460" width="1" height="10" style="fill:#ff0000"/><!-- design_Default_RTL_GroupBundle_20_Synthesis box0: 252 - 253 -->
	<rect x="353" y="460" width="50" height="10" style="fill:#00ff00"/><!-- design_Default_RTL_GroupBundle_20_Synthesis box1: 253 - 303 -->
	<rect x="403" y="460" width="6" height="10" style="fill:#0000ff"/><!-- design_Default_RTL_GroupBundle_20_Synthesis box2: 303 - 309 -->
	<rect x="352" y="470" width="1" height="10" style="fill:#ff0000"/><!-- design_Default_RTL_GroupBundle_22_Synthesis box0: 252 - 253 -->
	<rect x="353" y="470" width="50" height="10" style="fill:#00ff00"/><!-- design_Default_RTL_GroupBundle_22_Synthesis box1: 253 - 303 -->
	<rect x="403" y="470" width="6" height="10" style="fill:#0000ff"/><!-- design_Default_RTL_GroupBundle_22_Synthesis box2: 303 - 309 -->
	<rect x="409" y="470" width="1" height="10" style="fill:#ff00ff"/><!-- design_Default_RTL_GroupBundle_22_Synthesis box3: 309 - 310 -->
	<rect x="352" y="480" width="1" height="10" style="fill:#ff0000"/><!-- design_Default_RTL_GroupBundle_13_Synthesis box0: 252 - 253 -->
	<rect x="353" y="480" width="50" height="10" style="fill:#00ff00"/><!-- design_Default_RTL_GroupBundle_13_Synthesis box1: 253 - 303 -->
	<rect x="403" y="480" width="7" height="10" style="fill:#0000ff"/><!-- design_Default_RTL_GroupBundle_13_Synthesis box2: 303 - 310 -->
	<rect x="352" y="490" width="1" height="10" style="fill:#ff0000"/><!-- design_Default_RTL_GroupBundle_29_Synthesis box0: 252 - 253 -->
	<rect x="353" y="490" width="50" height="10" style="fill:#00ff00"/><!-- design_Default_RTL_GroupBundle_29_Synthesis box1: 253 - 303 -->
	<rect x="403" y="490" width="8" height="10" style="fill:#0000ff"/><!-- design_Default_RTL_GroupBundle_29_Synthesis box2: 303 - 311 -->
	<rect x="352" y="500" width="1" height="10" style="fill:#ff0000"/><!-- design_Default_RTL_GroupBundle_10_Synthesis box0: 252 - 253 -->
	<rect x="353" y="500" width="50" height="10" style="fill:#00ff00"/><!-- design_Default_RTL_GroupBundle_10_Synthesis box1: 253 - 303 -->
	<rect x="403" y="500" width="8" height="10" style="fill:#0000ff"/><!-- design_Default_RTL_GroupBundle_10_Synthesis box2: 303 - 311 -->
	<rect x="411" y="500" width="1" height="10" style="fill:#ff00ff"/><!-- design_Default_RTL_GroupBundle_10_Synthesis box3: 311 - 312 -->
	<rect x="352" y="510" width="1" height="10" style="fill:#ff0000"/><!-- design_Default_RTL_GroupBundle_9_Synthesis box0: 252 - 253 -->
	<rect x="353" y="510" width="50" height="10" style="fill:#00ff00"/><!-- design_Default_RTL_GroupBundle_9_Synthesis box1: 253 - 303 -->
	<rect x="403" y="510" width="8" height="10" style="fill:#0000ff"/><!-- design_Default_RTL_GroupBundle_9_Synthesis box2: 303 - 311 -->
	<rect x="411" y="510" width="1" height="10" style="fill:#ff00ff"/><!-- design_Default_RTL_GroupBundle_9_Synthesis box3: 311 - 312 -->
	<rect x="352" y="520" width="1" height="10" style="fill:#ff0000"/><!-- design_Default_RTL_GroupBundle_31_Synthesis box0: 252 - 253 -->
	<rect x="353" y="520" width="50" height="10" style="fill:#00ff00"/><!-- design_Default_RTL_GroupBundle_31_Synthesis box1: 253 - 303 -->
	<rect x="403" y="520" width="11" height="10" style="fill:#0000ff"/><!-- design_Default_RTL_GroupBundle_31_Synthesis box2: 303 - 314 -->
	<rect x="414" y="520" width="1" height="10" style="fill:#ff00ff"/><!-- design_Default_RTL_GroupBundle_31_Synthesis box3: 314 - 315 -->
	<rect x="352" y="530" width="1" height="10" style="fill:#ff0000"/><!-- design_Default_RTL_GroupBundle_0_Synthesis box0: 252 - 253 -->
	<rect x="353" y="530" width="50" height="10" style="fill:#00ff00"/><!-- design_Default_RTL_GroupBundle_0_Synthesis box1: 253 - 303 -->
	<rect x="403" y="530" width="21" height="10" style="fill:#0000ff"/><!-- design_Default_RTL_GroupBundle_0_Synthesis box2: 303 - 324 -->
	<rect x="352" y="540" width="1" height="10" style="fill:#ff0000"/><!-- design_Default_RTL_GroupBundle_30_Synthesis box0: 252 - 253 -->
	<rect x="353" y="540" width="50" height="10" style="fill:#00ff00"/><!-- design_Default_RTL_GroupBundle_30_Synthesis box1: 253 - 303 -->
	<rect x="403" y="540" width="21" height="10" style="fill:#0000ff"/><!-- design_Default_RTL_GroupBundle_30_Synthesis box2: 303 - 324 -->
	<rect x="352" y="550" width="1" height="10" style="fill:#ff0000"/><!-- design_Default_RTL_GroupBundle_23_Synthesis box0: 252 - 253 -->
	<rect x="353" y="550" width="50" height="10" style="fill:#00ff00"/><!-- design_Default_RTL_GroupBundle_23_Synthesis box1: 253 - 303 -->
	<rect x="403" y="550" width="26" height="10" style="fill:#0000ff"/><!-- design_Default_RTL_GroupBundle_23_Synthesis box2: 303 - 329 -->
	<rect x="401" y="560" width="1" height="10" style="fill:#0000ff"/><!-- design_Default_RTL_GroupBundle_7_Synthesis_Bundle_7_analyzer box2: 301 - 302 -->
	<rect x="406" y="570" width="1" height="10" style="fill:#0000ff"/><!-- design_Default_RTL_GroupBundle_15_Synthesis_Bundle_15_analyzer box2: 306 - 307 -->
	<rect x="407" y="580" width="1" height="10" style="fill:#0000ff"/><!-- design_Default_RTL_GroupBundle_24_Synthesis_Bundle_24_analyzer box2: 307 - 308 -->
	<rect x="409" y="590" width="1" height="10" style="fill:#0000ff"/><!-- design_Default_RTL_GroupBundle_18_Synthesis_Bundle_18_analyzer box2: 309 - 310 -->
	<rect x="410" y="600" width="1" height="10" style="fill:#0000ff"/><!-- design_Default_RTL_GroupBundle_13_Synthesis_Bundle_13_analyzer box2: 310 - 311 -->
	<rect x="412" y="610" width="1" height="10" style="fill:#0000ff"/><!-- design_Default_RTL_GroupBundle_10_Synthesis_Bundle_10_analyzer box2: 312 - 313 -->
	<rect x="430" y="620" width="1" height="10" style="fill:#0000ff"/><!-- backend_default_BackendEntry box2: 330 - 331 -->
	<rect x="431" y="630" width="1" height="10" style="fill:#00ff00"/><!-- backend_default_Intermediate_Profiling_Results_Analyzer_BackendEntry box1: 331 - 332 -->
	<rect x="432" y="630" width="1" height="10" style="fill:#0000ff"/><!-- backend_default_Intermediate_Profiling_Results_Analyzer_BackendEntry box2: 332 - 333 -->
	<rect x="431" y="640" width="1" height="10" style="fill:#00ff00"/><!-- backend_default_OptionsDbProc box1: 331 - 332 -->
	<rect x="432" y="640" width="1" height="10" style="fill:#0000ff"/><!-- backend_default_OptionsDbProc box2: 332 - 333 -->
	<rect x="433" y="640" width="6" height="10" style="fill:#ff00ff"/><!-- backend_default_OptionsDbProc box3: 333 - 339 -->
	<rect x="431" y="650" width="13" height="10" style="fill:#00ff00"/><!-- backend_default_RTL_DB_Indexer box1: 331 - 344 -->
	<rect x="444" y="650" width="5" height="10" style="fill:#0000ff"/><!-- backend_default_RTL_DB_Indexer box2: 344 - 349 -->
	<rect x="449" y="650" width="1" height="10" style="fill:#ff00ff"/><!-- backend_default_RTL_DB_Indexer box3: 349 - 350 -->
	<rect x="431" y="660" width="16" height="10" style="fill:#00ff00"/><!-- backend_default_Vcs_Link box1: 331 - 347 -->
	<rect x="447" y="660" width="1" height="10" style="fill:#0000ff"/><!-- backend_default_Vcs_Link box2: 347 - 348 -->
	<rect x="448" y="660" width="1" height="10" style="fill:#ff00ff"/><!-- backend_default_Vcs_Link box3: 348 - 349 -->
	<rect x="450" y="670" width="22" height="10" style="fill:#00ff00"/><!-- backend_default_RTL_DB_Link box1: 350 - 372 -->
	<rect x="472" y="670" width="1" height="10" style="fill:#0000ff"/><!-- backend_default_RTL_DB_Link box2: 372 - 373 -->
	<rect x="473" y="670" width="1" height="10" style="fill:#ff00ff"/><!-- backend_default_RTL_DB_Link box3: 373 - 374 -->
	<rect x="474" y="680" width="24" height="10" style="fill:#00ff00"/><!-- backend_default_RTL_DB_RunTime box1: 374 - 398 -->
	<rect x="498" y="680" width="4" height="10" style="fill:#0000ff"/><!-- backend_default_RTL_DB_RunTime box2: 398 - 402 -->
	<rect x="502" y="680" width="1" height="10" style="fill:#ff00ff"/><!-- backend_default_RTL_DB_RunTime box3: 402 - 403 -->
	<rect x="474" y="690" width="26" height="10" style="fill:#00ff00"/><!-- backend_default_zTopBuild box1: 374 - 400 -->
	<rect x="500" y="690" width="25" height="10" style="fill:#0000ff"/><!-- backend_default_zTopBuild box2: 400 - 425 -->
	<rect x="525" y="700" width="1" height="10" style="fill:#0000ff"/><!-- backend_default_zTopBuildResultAnalyzer box2: 425 - 426 -->
	<rect x="526" y="710" width="1" height="10" style="fill:#00ff00"/><!-- backend_default_Intermediate_Profiling_Results_Analyzer_ZTopBuildAnalyzer box1: 426 - 427 -->
	<rect x="527" y="710" width="1" height="10" style="fill:#0000ff"/><!-- backend_default_Intermediate_Profiling_Results_Analyzer_ZTopBuildAnalyzer box2: 427 - 428 -->
	<rect x="528" y="710" width="1" height="10" style="fill:#ff00ff"/><!-- backend_default_Intermediate_Profiling_Results_Analyzer_ZTopBuildAnalyzer box3: 428 - 429 -->
	<rect x="526" y="720" width="24" height="10" style="fill:#00ff00"/><!-- backend_default_Zrdb_Equi box1: 426 - 450 -->
	<rect x="550" y="720" width="4" height="10" style="fill:#0000ff"/><!-- backend_default_Zrdb_Equi box2: 450 - 454 -->
	<rect x="554" y="720" width="1" height="10" style="fill:#ff00ff"/><!-- backend_default_Zrdb_Equi box3: 454 - 455 -->
	<rect x="526" y="730" width="24" height="10" style="fill:#00ff00"/><!-- backend_default_zRtlToEqui box1: 426 - 450 -->
	<rect x="550" y="730" width="6" height="10" style="fill:#0000ff"/><!-- backend_default_zRtlToEqui box2: 450 - 456 -->
	<rect x="526" y="740" width="24" height="10" style="fill:#00ff00"/><!-- backend_default_zCoreBuild_Part_0 box1: 426 - 450 -->
	<rect x="550" y="740" width="107" height="10" style="fill:#0000ff"/><!-- backend_default_zCoreBuild_Part_0 box2: 450 - 557 -->
	<rect x="556" y="750" width="18" height="10" style="fill:#00ff00"/><!-- backend_default_zSimzilla box1: 456 - 474 -->
	<rect x="574" y="750" width="10" height="10" style="fill:#0000ff"/><!-- backend_default_zSimzilla box2: 474 - 484 -->
	<rect x="584" y="750" width="1" height="10" style="fill:#ff00ff"/><!-- backend_default_zSimzilla box3: 484 - 485 -->
	<rect x="657" y="760" width="1" height="10" style="fill:#ff0000"/><!-- backend_default_zCoreBuildTiming_Part_0_U0_M0_F0 box0: 557 - 558 -->
	<rect x="658" y="760" width="19" height="10" style="fill:#00ff00"/><!-- backend_default_zCoreBuildTiming_Part_0_U0_M0_F0 box1: 558 - 577 -->
	<rect x="677" y="760" width="3" height="10" style="fill:#0000ff"/><!-- backend_default_zCoreBuildTiming_Part_0_U0_M0_F0 box2: 577 - 580 -->
	<rect x="680" y="760" width="1" height="10" style="fill:#ff00ff"/><!-- backend_default_zCoreBuildTiming_Part_0_U0_M0_F0 box3: 580 - 581 -->
	<rect x="658" y="770" width="19" height="10" style="fill:#00ff00"/><!-- backend_default_zCoreBuildTiming_Part_0_U0_M0_F1 box1: 558 - 577 -->
	<rect x="677" y="770" width="21" height="10" style="fill:#0000ff"/><!-- backend_default_zCoreBuildTiming_Part_0_U0_M0_F1 box2: 577 - 598 -->
	<rect x="698" y="780" width="47" height="10" style="fill:#00ff00"/><!-- backend_default_zPar box1: 598 - 645 -->
	<rect x="745" y="780" width="14" height="10" style="fill:#0000ff"/><!-- backend_default_zPar box2: 645 - 659 -->
	<rect x="759" y="780" width="1" height="10" style="fill:#ff00ff"/><!-- backend_default_zPar box3: 659 - 660 -->
	<rect x="760" y="790" width="5" height="10" style="fill:#0000ff"/><!-- backend_default_FpgaMultiBinPredictor box2: 660 - 665 -->
	<rect x="765" y="790" width="1" height="10" style="fill:#ff00ff"/><!-- backend_default_FpgaMultiBinPredictor box3: 665 - 666 -->
	<rect x="766" y="800" width="1" height="10" style="fill:#00ff00"/><!-- backend_default_Intermediate_Profiling_Results_Analyzer_ZParAnalyzer box1: 666 - 667 -->
	<rect x="767" y="800" width="1" height="10" style="fill:#0000ff"/><!-- backend_default_Intermediate_Profiling_Results_Analyzer_ZParAnalyzer box2: 667 - 668 -->
	<rect x="767" y="810" width="39" height="10" style="fill:#00ff00"/><!-- backend_default_U0_M0_F00_Original box1: 667 - 706 -->
	<rect x="806" y="810" width="2612" height="10" style="fill:#0000ff"/><!-- backend_default_U0_M0_F00_Original box2: 706 - 3318 -->
	<rect x="767" y="820" width="39" height="10" style="fill:#00ff00"/><!-- backend_default_U0_M0_F01_Original box1: 667 - 706 -->
	<rect x="806" y="820" width="8478" height="10" style="fill:#0000ff"/><!-- backend_default_U0_M0_F01_Original box2: 706 - 9184 -->
	<rect x="9284" y="820" width="1" height="10" style="fill:#ff00ff"/><!-- backend_default_U0_M0_F01_Original box3: 9184 - 9185 -->
	<rect x="775" y="830" width="31" height="10" style="fill:#00ff00"/><!-- backend_default_zTime box1: 675 - 706 -->
	<rect x="806" y="830" width="6" height="10" style="fill:#0000ff"/><!-- backend_default_zTime box2: 706 - 712 -->
	<rect x="812" y="840" width="37" height="10" style="fill:#00ff00"/><!-- backend_default_zPertagram box1: 712 - 749 -->
	<rect x="849" y="840" width="6" height="10" style="fill:#0000ff"/><!-- backend_default_zPertagram box2: 749 - 755 -->
	<rect x="855" y="840" width="1" height="10" style="fill:#ff00ff"/><!-- backend_default_zPertagram box3: 755 - 756 -->
	<rect x="3419" y="850" width="1" height="10" style="fill:#00ff00"/><!-- backend_default_U0_M0_F00_Finish box1: 3319 - 3320 -->
	<rect x="3420" y="850" width="31" height="10" style="fill:#0000ff"/><!-- backend_default_U0_M0_F00_Finish box2: 3320 - 3351 -->
	<rect x="3451" y="860" width="36" height="10" style="fill:#00ff00"/><!-- backend_default_U0_M0_F00_zFpgaTiming box1: 3351 - 3387 -->
	<rect x="3487" y="860" width="23" height="10" style="fill:#0000ff"/><!-- backend_default_U0_M0_F00_zFpgaTiming box2: 3387 - 3410 -->
	<rect x="3510" y="860" width="1" height="10" style="fill:#ff00ff"/><!-- backend_default_U0_M0_F00_zFpgaTiming box3: 3410 - 3411 -->
	<rect x="9285" y="870" width="2" height="10" style="fill:#00ff00"/><!-- backend_default_U0_M0_F01_Finish box1: 9185 - 9187 -->
	<rect x="9287" y="870" width="31" height="10" style="fill:#0000ff"/><!-- backend_default_U0_M0_F01_Finish box2: 9187 - 9218 -->
	<rect x="9319" y="880" width="30" height="10" style="fill:#00ff00"/><!-- backend_default_FpgaResultAnalyzer box1: 9219 - 9249 -->
	<rect x="9349" y="880" width="4" height="10" style="fill:#0000ff"/><!-- backend_default_FpgaResultAnalyzer box2: 9249 - 9253 -->
	<rect x="9353" y="880" width="1" height="10" style="fill:#ff00ff"/><!-- backend_default_FpgaResultAnalyzer box3: 9253 - 9254 -->
	<rect x="9319" y="890" width="30" height="10" style="fill:#00ff00"/><!-- backend_default_U0_M0_F01_zFpgaTiming box1: 9219 - 9249 -->
	<rect x="9349" y="890" width="89" height="10" style="fill:#0000ff"/><!-- backend_default_U0_M0_F01_zFpgaTiming box2: 9249 - 9338 -->
	<rect x="9321" y="900" width="24" height="10" style="fill:#00ff00"/><!-- backend_default_zDB_Global box1: 9221 - 9245 -->
	<rect x="9345" y="900" width="24" height="10" style="fill:#0000ff"/><!-- backend_default_zDB_Global box2: 9245 - 9269 -->
	<rect x="9369" y="910" width="21" height="10" style="fill:#00ff00"/><!-- backend_default_zPRD_Run box1: 9269 - 9290 -->
	<rect x="9390" y="910" width="1" height="10" style="fill:#0000ff"/><!-- backend_default_zPRD_Run box2: 9290 - 9291 -->
	<rect x="9369" y="920" width="23" height="10" style="fill:#00ff00"/><!-- backend_default_zDbPostProc box1: 9269 - 9292 -->
	<rect x="9392" y="920" width="4" height="10" style="fill:#0000ff"/><!-- backend_default_zDbPostProc box2: 9292 - 9296 -->
	<rect x="9438" y="930" width="1" height="10" style="fill:#0000ff"/><!-- backend_default_PostZFpgaTimingJoin box2: 9338 - 9339 -->
	<rect x="9438" y="940" width="19" height="10" style="fill:#00ff00"/><!-- backend_default_zTimeFpga box1: 9338 - 9357 -->
	<rect x="9457" y="940" width="4" height="10" style="fill:#0000ff"/><!-- backend_default_zTimeFpga box2: 9357 - 9361 -->
	<rect x="9461" y="950" width="10" height="10" style="fill:#0000ff"/><!-- backend_default_zAuditReport box2: 9361 - 9371 -->
	<rect x="9461" y="960" width="22" height="10" style="fill:#00ff00"/><!-- backend_default_zPertagram_postFPGA box1: 9361 - 9383 -->
	<rect x="9483" y="960" width="2" height="10" style="fill:#0000ff"/><!-- backend_default_zPertagram_postFPGA box2: 9383 - 9385 -->
	<rect x="9485" y="960" width="1" height="10" style="fill:#ff00ff"/><!-- backend_default_zPertagram_postFPGA box3: 9385 - 9386 -->
	<rect x="9486" y="970" width="1" height="10" style="fill:#0000ff"/><!-- Profiling_Results_Analyzer box2: 9386 - 9387 -->
</svg>
