<?xml version="1.0" encoding="UTF-8" ?>
<svg xmlns="http://www.w3.org/2000/svg" width="3952" height="1000" version="1.1">
<line x1="100" y1="100" x2="100" y2="900" stroke="#7f7f7f" stroke-width="1"/>
<line x1="160" y1="100" x2="160" y2="900" stroke="#7f7f7f" stroke-width="1"/>
<line x1="220" y1="100" x2="220" y2="900" stroke="#7f7f7f" stroke-width="1"/>
<line x1="280" y1="100" x2="280" y2="900" stroke="#7f7f7f" stroke-width="1"/>
<line x1="340" y1="100" x2="340" y2="900" stroke="#7f7f7f" stroke-width="1"/>
<line x1="400" y1="100" x2="400" y2="900" stroke="#7f7f7f" stroke-width="1"/>
<line x1="460" y1="100" x2="460" y2="900" stroke="#7f7f7f" stroke-width="1"/>
<line x1="520" y1="100" x2="520" y2="900" stroke="#7f7f7f" stroke-width="1"/>
<line x1="580" y1="100" x2="580" y2="900" stroke="#7f7f7f" stroke-width="1"/>
<line x1="640" y1="100" x2="640" y2="900" stroke="#7f7f7f" stroke-width="1"/>
<line x1="700" y1="100" x2="700" y2="900" stroke="#7f7f7f" stroke-width="1"/>
<line x1="760" y1="100" x2="760" y2="900" stroke="#7f7f7f" stroke-width="1"/>
<line x1="820" y1="100" x2="820" y2="900" stroke="#7f7f7f" stroke-width="1"/>
<line x1="880" y1="100" x2="880" y2="900" stroke="#7f7f7f" stroke-width="1"/>
<line x1="940" y1="100" x2="940" y2="900" stroke="#7f7f7f" stroke-width="1"/>
<line x1="1000" y1="100" x2="1000" y2="900" stroke="#7f7f7f" stroke-width="1"/>
<line x1="1060" y1="100" x2="1060" y2="900" stroke="#7f7f7f" stroke-width="1"/>
<line x1="1120" y1="100" x2="1120" y2="900" stroke="#7f7f7f" stroke-width="1"/>
<line x1="1180" y1="100" x2="1180" y2="900" stroke="#7f7f7f" stroke-width="1"/>
<line x1="1240" y1="100" x2="1240" y2="900" stroke="#7f7f7f" stroke-width="1"/>
<line x1="1300" y1="100" x2="1300" y2="900" stroke="#7f7f7f" stroke-width="1"/>
<line x1="1360" y1="100" x2="1360" y2="900" stroke="#7f7f7f" stroke-width="1"/>
<line x1="1420" y1="100" x2="1420" y2="900" stroke="#7f7f7f" stroke-width="1"/>
<line x1="1480" y1="100" x2="1480" y2="900" stroke="#7f7f7f" stroke-width="1"/>
<line x1="1540" y1="100" x2="1540" y2="900" stroke="#7f7f7f" stroke-width="1"/>
<line x1="1600" y1="100" x2="1600" y2="900" stroke="#7f7f7f" stroke-width="1"/>
<line x1="1660" y1="100" x2="1660" y2="900" stroke="#7f7f7f" stroke-width="1"/>
<line x1="1720" y1="100" x2="1720" y2="900" stroke="#7f7f7f" stroke-width="1"/>
<line x1="1780" y1="100" x2="1780" y2="900" stroke="#7f7f7f" stroke-width="1"/>
<line x1="1840" y1="100" x2="1840" y2="900" stroke="#7f7f7f" stroke-width="1"/>
<line x1="1900" y1="100" x2="1900" y2="900" stroke="#7f7f7f" stroke-width="1"/>
<line x1="1960" y1="100" x2="1960" y2="900" stroke="#7f7f7f" stroke-width="1"/>
<line x1="2020" y1="100" x2="2020" y2="900" stroke="#7f7f7f" stroke-width="1"/>
<line x1="2080" y1="100" x2="2080" y2="900" stroke="#7f7f7f" stroke-width="1"/>
<line x1="2140" y1="100" x2="2140" y2="900" stroke="#7f7f7f" stroke-width="1"/>
<line x1="2200" y1="100" x2="2200" y2="900" stroke="#7f7f7f" stroke-width="1"/>
<line x1="2260" y1="100" x2="2260" y2="900" stroke="#7f7f7f" stroke-width="1"/>
<line x1="2320" y1="100" x2="2320" y2="900" stroke="#7f7f7f" stroke-width="1"/>
<line x1="2380" y1="100" x2="2380" y2="900" stroke="#7f7f7f" stroke-width="1"/>
<line x1="2440" y1="100" x2="2440" y2="900" stroke="#7f7f7f" stroke-width="1"/>
<line x1="2500" y1="100" x2="2500" y2="900" stroke="#7f7f7f" stroke-width="1"/>
<line x1="2560" y1="100" x2="2560" y2="900" stroke="#7f7f7f" stroke-width="1"/>
<line x1="2620" y1="100" x2="2620" y2="900" stroke="#7f7f7f" stroke-width="1"/>
<line x1="2680" y1="100" x2="2680" y2="900" stroke="#7f7f7f" stroke-width="1"/>
<line x1="2740" y1="100" x2="2740" y2="900" stroke="#7f7f7f" stroke-width="1"/>
<line x1="2800" y1="100" x2="2800" y2="900" stroke="#7f7f7f" stroke-width="1"/>
<line x1="2860" y1="100" x2="2860" y2="900" stroke="#7f7f7f" stroke-width="1"/>
<line x1="2920" y1="100" x2="2920" y2="900" stroke="#7f7f7f" stroke-width="1"/>
<line x1="2980" y1="100" x2="2980" y2="900" stroke="#7f7f7f" stroke-width="1"/>
<line x1="3040" y1="100" x2="3040" y2="900" stroke="#7f7f7f" stroke-width="1"/>
<line x1="3100" y1="100" x2="3100" y2="900" stroke="#7f7f7f" stroke-width="1"/>
<line x1="3160" y1="100" x2="3160" y2="900" stroke="#7f7f7f" stroke-width="1"/>
<line x1="3220" y1="100" x2="3220" y2="900" stroke="#7f7f7f" stroke-width="1"/>
<line x1="3280" y1="100" x2="3280" y2="900" stroke="#7f7f7f" stroke-width="1"/>
<line x1="3340" y1="100" x2="3340" y2="900" stroke="#7f7f7f" stroke-width="1"/>
<line x1="3400" y1="100" x2="3400" y2="900" stroke="#7f7f7f" stroke-width="1"/>
<line x1="3460" y1="100" x2="3460" y2="900" stroke="#7f7f7f" stroke-width="1"/>
<line x1="3520" y1="100" x2="3520" y2="900" stroke="#7f7f7f" stroke-width="1"/>
<line x1="3580" y1="100" x2="3580" y2="900" stroke="#7f7f7f" stroke-width="1"/>
<line x1="3640" y1="100" x2="3640" y2="900" stroke="#7f7f7f" stroke-width="1"/>
<line x1="3700" y1="100" x2="3700" y2="900" stroke="#7f7f7f" stroke-width="1"/>
<line x1="3760" y1="100" x2="3760" y2="900" stroke="#7f7f7f" stroke-width="1"/>
<line x1="3820" y1="100" x2="3820" y2="900" stroke="#7f7f7f" stroke-width="1"/>
	<rect x="101" y="110" width="1" height="10" style="fill:#0000ff"/><!-- FE_Version_Checker box2: 1 - 2 -->
	<rect x="101" y="120" width="2" height="10" style="fill:#0000ff"/><!-- VERDI_Version_Checker box2: 1 - 3 -->
	<rect x="101" y="130" width="2" height="10" style="fill:#0000ff"/><!-- Vcs_Version_Checker box2: 1 - 3 -->
	<rect x="101" y="140" width="3" height="10" style="fill:#0000ff"/><!-- BE_Version_Checker box2: 1 - 4 -->
	<rect x="104" y="150" width="24" height="10" style="fill:#00ff00"/><!-- Target_Config box1: 4 - 28 -->
	<rect x="128" y="150" width="1" height="10" style="fill:#0000ff"/><!-- Target_Config box2: 28 - 29 -->
	<rect x="129" y="150" width="1" height="10" style="fill:#ff00ff"/><!-- Target_Config box3: 29 - 30 -->
	<rect x="158" y="160" width="2" height="10" style="fill:#0000ff"/><!-- Target_Config_Analyzer box2: 58 - 60 -->
	<rect x="160" y="170" width="41" height="10" style="fill:#00ff00"/><!-- design_Fs_Macro box1: 60 - 101 -->
	<rect x="201" y="170" width="1" height="10" style="fill:#0000ff"/><!-- design_Fs_Macro box2: 101 - 102 -->
	<rect x="202" y="170" width="1" height="10" style="fill:#ff00ff"/><!-- design_Fs_Macro box3: 102 - 103 -->
	<rect x="221" y="180" width="35" height="10" style="fill:#00ff00"/><!-- vcs_splitter_VCS_Task_Builder box1: 121 - 156 -->
	<rect x="256" y="180" width="38" height="10" style="fill:#0000ff"/><!-- vcs_splitter_VCS_Task_Builder box2: 156 - 194 -->
	<rect x="294" y="190" width="9" height="10" style="fill:#0000ff"/><!-- VCS_Task_Analyzer box2: 194 - 203 -->
	<rect x="303" y="200" width="5" height="10" style="fill:#00ff00"/><!-- backend_default_Intermediate_Profiling_Results_Analyzer_VCSAnalyzer box1: 203 - 208 -->
	<rect x="308" y="200" width="3" height="10" style="fill:#0000ff"/><!-- backend_default_Intermediate_Profiling_Results_Analyzer_VCSAnalyzer box2: 208 - 211 -->
	<rect x="303" y="210" width="47" height="10" style="fill:#00ff00"/><!-- RhinoFsdb_Builder box1: 203 - 250 -->
	<rect x="350" y="210" width="1" height="10" style="fill:#0000ff"/><!-- RhinoFsdb_Builder box2: 250 - 251 -->
	<rect x="351" y="210" width="1" height="10" style="fill:#ff00ff"/><!-- RhinoFsdb_Builder box3: 251 - 252 -->
	<rect x="303" y="220" width="47" height="10" style="fill:#00ff00"/><!-- design_Default_RTL_GroupBundle_16_Synthesis box1: 203 - 250 -->
	<rect x="350" y="220" width="4" height="10" style="fill:#0000ff"/><!-- design_Default_RTL_GroupBundle_16_Synthesis box2: 250 - 254 -->
	<rect x="354" y="220" width="1" height="10" style="fill:#ff00ff"/><!-- design_Default_RTL_GroupBundle_16_Synthesis box3: 254 - 255 -->
	<rect x="303" y="230" width="47" height="10" style="fill:#00ff00"/><!-- design_Default_RTL_GroupBundle_19_Synthesis box1: 203 - 250 -->
	<rect x="350" y="230" width="5" height="10" style="fill:#0000ff"/><!-- design_Default_RTL_GroupBundle_19_Synthesis box2: 250 - 255 -->
	<rect x="355" y="230" width="1" height="10" style="fill:#ff00ff"/><!-- design_Default_RTL_GroupBundle_19_Synthesis box3: 255 - 256 -->
	<rect x="303" y="240" width="47" height="10" style="fill:#00ff00"/><!-- design_Default_RTL_GroupBundle_7_Synthesis box1: 203 - 250 -->
	<rect x="350" y="240" width="6" height="10" style="fill:#0000ff"/><!-- design_Default_RTL_GroupBundle_7_Synthesis box2: 250 - 256 -->
	<rect x="303" y="250" width="47" height="10" style="fill:#00ff00"/><!-- design_Default_RTL_GroupBundle_6_Synthesis box1: 203 - 250 -->
	<rect x="350" y="250" width="7" height="10" style="fill:#0000ff"/><!-- design_Default_RTL_GroupBundle_6_Synthesis box2: 250 - 257 -->
	<rect x="303" y="260" width="47" height="10" style="fill:#00ff00"/><!-- design_Default_RTL_GroupBundle_8_Synthesis box1: 203 - 250 -->
	<rect x="350" y="260" width="8" height="10" style="fill:#0000ff"/><!-- design_Default_RTL_GroupBundle_8_Synthesis box2: 250 - 258 -->
	<rect x="358" y="260" width="2" height="10" style="fill:#ff00ff"/><!-- design_Default_RTL_GroupBundle_8_Synthesis box3: 258 - 260 -->
	<rect x="303" y="270" width="47" height="10" style="fill:#00ff00"/><!-- design_Default_RTL_GroupBundle_24_Synthesis box1: 203 - 250 -->
	<rect x="350" y="270" width="9" height="10" style="fill:#0000ff"/><!-- design_Default_RTL_GroupBundle_24_Synthesis box2: 250 - 259 -->
	<rect x="359" y="270" width="1" height="10" style="fill:#ff00ff"/><!-- design_Default_RTL_GroupBundle_24_Synthesis box3: 259 - 260 -->
	<rect x="303" y="280" width="49" height="10" style="fill:#00ff00"/><!-- design_Default_RTL_GroupBundle_4_Synthesis box1: 203 - 252 -->
	<rect x="352" y="280" width="2" height="10" style="fill:#0000ff"/><!-- design_Default_RTL_GroupBundle_4_Synthesis box2: 252 - 254 -->
	<rect x="354" y="280" width="1" height="10" style="fill:#ff00ff"/><!-- design_Default_RTL_GroupBundle_4_Synthesis box3: 254 - 255 -->
	<rect x="303" y="290" width="49" height="10" style="fill:#00ff00"/><!-- design_Default_RTL_GroupBundle_20_Synthesis box1: 203 - 252 -->
	<rect x="352" y="290" width="3" height="10" style="fill:#0000ff"/><!-- design_Default_RTL_GroupBundle_20_Synthesis box2: 252 - 255 -->
	<rect x="355" y="290" width="1" height="10" style="fill:#ff00ff"/><!-- design_Default_RTL_GroupBundle_20_Synthesis box3: 255 - 256 -->
	<rect x="303" y="300" width="49" height="10" style="fill:#00ff00"/><!-- design_Default_RTL_GroupBundle_14_Synthesis box1: 203 - 252 -->
	<rect x="352" y="300" width="4" height="10" style="fill:#0000ff"/><!-- design_Default_RTL_GroupBundle_14_Synthesis box2: 252 - 256 -->
	<rect x="303" y="310" width="49" height="10" style="fill:#00ff00"/><!-- design_Default_RTL_GroupBundle_15_Synthesis box1: 203 - 252 -->
	<rect x="352" y="310" width="4" height="10" style="fill:#0000ff"/><!-- design_Default_RTL_GroupBundle_15_Synthesis box2: 252 - 256 -->
	<rect x="303" y="320" width="49" height="10" style="fill:#00ff00"/><!-- design_Default_RTL_GroupBundle_18_Synthesis box1: 203 - 252 -->
	<rect x="352" y="320" width="4" height="10" style="fill:#0000ff"/><!-- design_Default_RTL_GroupBundle_18_Synthesis box2: 252 - 256 -->
	<rect x="303" y="330" width="49" height="10" style="fill:#00ff00"/><!-- design_Default_RTL_GroupBundle_27_Synthesis box1: 203 - 252 -->
	<rect x="352" y="330" width="4" height="10" style="fill:#0000ff"/><!-- design_Default_RTL_GroupBundle_27_Synthesis box2: 252 - 256 -->
	<rect x="303" y="340" width="49" height="10" style="fill:#00ff00"/><!-- design_Default_RTL_GroupBundle_10_Synthesis box1: 203 - 252 -->
	<rect x="352" y="340" width="4" height="10" style="fill:#0000ff"/><!-- design_Default_RTL_GroupBundle_10_Synthesis box2: 252 - 256 -->
	<rect x="356" y="340" width="1" height="10" style="fill:#ff00ff"/><!-- design_Default_RTL_GroupBundle_10_Synthesis box3: 256 - 257 -->
	<rect x="303" y="350" width="49" height="10" style="fill:#00ff00"/><!-- design_Default_RTL_GroupBundle_9_Synthesis box1: 203 - 252 -->
	<rect x="352" y="350" width="5" height="10" style="fill:#0000ff"/><!-- design_Default_RTL_GroupBundle_9_Synthesis box2: 252 - 257 -->
	<rect x="303" y="360" width="49" height="10" style="fill:#00ff00"/><!-- design_Default_RTL_GroupBundle_21_Synthesis box1: 203 - 252 -->
	<rect x="352" y="360" width="6" height="10" style="fill:#0000ff"/><!-- design_Default_RTL_GroupBundle_21_Synthesis box2: 252 - 258 -->
	<rect x="303" y="370" width="49" height="10" style="fill:#00ff00"/><!-- design_Default_RTL_GroupBundle_0_Synthesis box1: 203 - 252 -->
	<rect x="352" y="370" width="15" height="10" style="fill:#0000ff"/><!-- design_Default_RTL_GroupBundle_0_Synthesis box2: 252 - 267 -->
	<rect x="303" y="380" width="49" height="10" style="fill:#00ff00"/><!-- design_Default_RTL_GroupBundle_22_Synthesis box1: 203 - 252 -->
	<rect x="352" y="380" width="31" height="10" style="fill:#0000ff"/><!-- design_Default_RTL_GroupBundle_22_Synthesis box2: 252 - 283 -->
	<rect x="303" y="390" width="50" height="10" style="fill:#00ff00"/><!-- design_Default_RTL_GroupBundle_13_Synthesis box1: 203 - 253 -->
	<rect x="353" y="390" width="7" height="10" style="fill:#0000ff"/><!-- design_Default_RTL_GroupBundle_13_Synthesis box2: 253 - 260 -->
	<rect x="303" y="400" width="52" height="10" style="fill:#00ff00"/><!-- design_Default_RTL_GroupBundle_2_Synthesis box1: 203 - 255 -->
	<rect x="355" y="400" width="1" height="10" style="fill:#0000ff"/><!-- design_Default_RTL_GroupBundle_2_Synthesis box2: 255 - 256 -->
	<rect x="303" y="410" width="52" height="10" style="fill:#00ff00"/><!-- Verdi_Compilation box1: 203 - 255 -->
	<rect x="355" y="410" width="2" height="10" style="fill:#0000ff"/><!-- Verdi_Compilation box2: 255 - 257 -->
	<rect x="357" y="410" width="1" height="10" style="fill:#ff00ff"/><!-- Verdi_Compilation box3: 257 - 258 -->
	<rect x="303" y="420" width="52" height="10" style="fill:#00ff00"/><!-- design_Default_RTL_GroupBundle_1_Synthesis box1: 203 - 255 -->
	<rect x="355" y="420" width="2" height="10" style="fill:#0000ff"/><!-- design_Default_RTL_GroupBundle_1_Synthesis box2: 255 - 257 -->
	<rect x="357" y="420" width="1" height="10" style="fill:#ff00ff"/><!-- design_Default_RTL_GroupBundle_1_Synthesis box3: 257 - 258 -->
	<rect x="303" y="430" width="52" height="10" style="fill:#00ff00"/><!-- design_Default_RTL_GroupBundle_23_Synthesis box1: 203 - 255 -->
	<rect x="355" y="430" width="4" height="10" style="fill:#0000ff"/><!-- design_Default_RTL_GroupBundle_23_Synthesis box2: 255 - 259 -->
	<rect x="359" y="430" width="1" height="10" style="fill:#ff00ff"/><!-- design_Default_RTL_GroupBundle_23_Synthesis box3: 259 - 260 -->
	<rect x="303" y="440" width="52" height="10" style="fill:#00ff00"/><!-- design_Default_RTL_GroupBundle_3_Synthesis box1: 203 - 255 -->
	<rect x="355" y="440" width="4" height="10" style="fill:#0000ff"/><!-- design_Default_RTL_GroupBundle_3_Synthesis box2: 255 - 259 -->
	<rect x="359" y="440" width="1" height="10" style="fill:#ff00ff"/><!-- design_Default_RTL_GroupBundle_3_Synthesis box3: 259 - 260 -->
	<rect x="303" y="450" width="52" height="10" style="fill:#00ff00"/><!-- design_Default_RTL_GroupBundle_11_Synthesis box1: 203 - 255 -->
	<rect x="355" y="450" width="5" height="10" style="fill:#0000ff"/><!-- design_Default_RTL_GroupBundle_11_Synthesis box2: 255 - 260 -->
	<rect x="303" y="460" width="52" height="10" style="fill:#00ff00"/><!-- design_Default_RTL_GroupBundle_17_Synthesis box1: 203 - 255 -->
	<rect x="355" y="460" width="5" height="10" style="fill:#0000ff"/><!-- design_Default_RTL_GroupBundle_17_Synthesis box2: 255 - 260 -->
	<rect x="303" y="470" width="52" height="10" style="fill:#00ff00"/><!-- design_Default_RTL_GroupBundle_26_Synthesis box1: 203 - 255 -->
	<rect x="355" y="470" width="5" height="10" style="fill:#0000ff"/><!-- design_Default_RTL_GroupBundle_26_Synthesis box2: 255 - 260 -->
	<rect x="303" y="480" width="52" height="10" style="fill:#00ff00"/><!-- design_Default_RTL_GroupBundle_12_Synthesis box1: 203 - 255 -->
	<rect x="355" y="480" width="7" height="10" style="fill:#0000ff"/><!-- design_Default_RTL_GroupBundle_12_Synthesis box2: 255 - 262 -->
	<rect x="362" y="480" width="1" height="10" style="fill:#ff00ff"/><!-- design_Default_RTL_GroupBundle_12_Synthesis box3: 262 - 263 -->
	<rect x="303" y="490" width="52" height="10" style="fill:#00ff00"/><!-- design_Default_RTL_GroupBundle_25_Synthesis box1: 203 - 255 -->
	<rect x="355" y="490" width="8" height="10" style="fill:#0000ff"/><!-- design_Default_RTL_GroupBundle_25_Synthesis box2: 255 - 263 -->
	<rect x="363" y="490" width="1" height="10" style="fill:#ff00ff"/><!-- design_Default_RTL_GroupBundle_25_Synthesis box3: 263 - 264 -->
	<rect x="303" y="500" width="52" height="10" style="fill:#00ff00"/><!-- design_Default_RTL_GroupBundle_5_Synthesis box1: 203 - 255 -->
	<rect x="355" y="500" width="10" height="10" style="fill:#0000ff"/><!-- design_Default_RTL_GroupBundle_5_Synthesis box2: 255 - 265 -->
	<rect x="365" y="500" width="1" height="10" style="fill:#ff00ff"/><!-- design_Default_RTL_GroupBundle_5_Synthesis box3: 265 - 266 -->
	<rect x="356" y="510" width="1" height="10" style="fill:#0000ff"/><!-- design_Default_RTL_GroupBundle_14_Synthesis_Bundle_14_analyzer box2: 256 - 257 -->
	<rect x="357" y="520" width="1" height="10" style="fill:#0000ff"/><!-- design_Default_RTL_GroupBundle_9_Synthesis_Bundle_9_analyzer box2: 257 - 258 -->
	<rect x="360" y="530" width="1" height="10" style="fill:#0000ff"/><!-- design_Default_RTL_GroupBundle_11_Synthesis_Bundle_11_analyzer box2: 260 - 261 -->
	<rect x="383" y="540" width="1" height="10" style="fill:#0000ff"/><!-- backend_default_BackendEntry box2: 283 - 284 -->
	<rect x="384" y="550" width="1" height="10" style="fill:#ff0000"/><!-- backend_default_OptionsDbProc box0: 284 - 285 -->
	<rect x="385" y="550" width="1" height="10" style="fill:#0000ff"/><!-- backend_default_OptionsDbProc box2: 285 - 286 -->
	<rect x="386" y="550" width="1" height="10" style="fill:#ff00ff"/><!-- backend_default_OptionsDbProc box3: 286 - 287 -->
	<rect x="384" y="560" width="1" height="10" style="fill:#ff0000"/><!-- backend_default_Vcs_Link box0: 284 - 285 -->
	<rect x="385" y="560" width="40" height="10" style="fill:#00ff00"/><!-- backend_default_Vcs_Link box1: 285 - 325 -->
	<rect x="425" y="560" width="2" height="10" style="fill:#0000ff"/><!-- backend_default_Vcs_Link box2: 325 - 327 -->
	<rect x="385" y="570" width="1" height="10" style="fill:#0000ff"/><!-- backend_default_Intermediate_Profiling_Results_Analyzer_BackendEntry box2: 285 - 286 -->
	<rect x="386" y="570" width="1" height="10" style="fill:#ff00ff"/><!-- backend_default_Intermediate_Profiling_Results_Analyzer_BackendEntry box3: 286 - 287 -->
	<rect x="385" y="580" width="40" height="10" style="fill:#00ff00"/><!-- backend_default_RTL_DB_Indexer box1: 285 - 325 -->
	<rect x="425" y="580" width="7" height="10" style="fill:#0000ff"/><!-- backend_default_RTL_DB_Indexer box2: 325 - 332 -->
	<rect x="451" y="590" width="45" height="10" style="fill:#00ff00"/><!-- backend_default_RTL_DB_RunTime box1: 351 - 396 -->
	<rect x="496" y="590" width="3" height="10" style="fill:#0000ff"/><!-- backend_default_RTL_DB_RunTime box2: 396 - 399 -->
	<rect x="451" y="600" width="45" height="10" style="fill:#00ff00"/><!-- backend_default_zTopBuild box1: 351 - 396 -->
	<rect x="496" y="600" width="22" height="10" style="fill:#0000ff"/><!-- backend_default_zTopBuild box2: 396 - 418 -->
	<rect x="518" y="600" width="1" height="10" style="fill:#ff00ff"/><!-- backend_default_zTopBuild box3: 418 - 419 -->
	<rect x="519" y="610" width="1" height="10" style="fill:#0000ff"/><!-- backend_default_zTopBuildResultAnalyzer box2: 419 - 420 -->
	<rect x="520" y="620" width="1" height="10" style="fill:#00ff00"/><!-- backend_default_Intermediate_Profiling_Results_Analyzer_ZTopBuildAnalyzer box1: 420 - 421 -->
	<rect x="521" y="620" width="1" height="10" style="fill:#0000ff"/><!-- backend_default_Intermediate_Profiling_Results_Analyzer_ZTopBuildAnalyzer box2: 421 - 422 -->
	<rect x="520" y="630" width="33" height="10" style="fill:#00ff00"/><!-- backend_default_Zrdb_Equi box1: 420 - 453 -->
	<rect x="553" y="630" width="6" height="10" style="fill:#0000ff"/><!-- backend_default_Zrdb_Equi box2: 453 - 459 -->
	<rect x="559" y="630" width="1" height="10" style="fill:#ff00ff"/><!-- backend_default_Zrdb_Equi box3: 459 - 460 -->
	<rect x="520" y="640" width="33" height="10" style="fill:#00ff00"/><!-- backend_default_zRtlToEqui box1: 420 - 453 -->
	<rect x="553" y="640" width="7" height="10" style="fill:#0000ff"/><!-- backend_default_zRtlToEqui box2: 453 - 460 -->
	<rect x="560" y="640" width="1" height="10" style="fill:#ff00ff"/><!-- backend_default_zRtlToEqui box3: 460 - 461 -->
	<rect x="520" y="650" width="33" height="10" style="fill:#00ff00"/><!-- backend_default_zCoreBuild_Part_0 box1: 420 - 453 -->
	<rect x="553" y="650" width="157" height="10" style="fill:#0000ff"/><!-- backend_default_zCoreBuild_Part_0 box2: 453 - 610 -->
	<rect x="561" y="660" width="64" height="10" style="fill:#00ff00"/><!-- backend_default_zSimzilla box1: 461 - 525 -->
	<rect x="625" y="660" width="7" height="10" style="fill:#0000ff"/><!-- backend_default_zSimzilla box2: 525 - 532 -->
	<rect x="710" y="670" width="1" height="10" style="fill:#0000ff"/><!-- backend_default_PostZCoreCompilationJoin box2: 610 - 611 -->
	<rect x="710" y="680" width="36" height="10" style="fill:#00ff00"/><!-- backend_default_zCoreBuildTiming_Part_0_U0_M0_F0 box1: 610 - 646 -->
	<rect x="746" y="680" width="3" height="10" style="fill:#0000ff"/><!-- backend_default_zCoreBuildTiming_Part_0_U0_M0_F0 box2: 646 - 649 -->
	<rect x="749" y="680" width="1" height="10" style="fill:#ff00ff"/><!-- backend_default_zCoreBuildTiming_Part_0_U0_M0_F0 box3: 649 - 650 -->
	<rect x="710" y="690" width="36" height="10" style="fill:#00ff00"/><!-- backend_default_zCoreBuildTiming_Part_0_U0_M0_F1 box1: 610 - 646 -->
	<rect x="746" y="690" width="12" height="10" style="fill:#0000ff"/><!-- backend_default_zCoreBuildTiming_Part_0_U0_M0_F1 box2: 646 - 658 -->
	<rect x="758" y="700" width="52" height="10" style="fill:#00ff00"/><!-- backend_default_zPar box1: 658 - 710 -->
	<rect x="810" y="700" width="10" height="10" style="fill:#0000ff"/><!-- backend_default_zPar box2: 710 - 720 -->
	<rect x="820" y="700" width="1" height="10" style="fill:#ff00ff"/><!-- backend_default_zPar box3: 720 - 721 -->
	<rect x="821" y="710" width="1" height="10" style="fill:#00ff00"/><!-- backend_default_FpgaMultiBinPredictor box1: 721 - 722 -->
	<rect x="822" y="710" width="5" height="10" style="fill:#0000ff"/><!-- backend_default_FpgaMultiBinPredictor box2: 722 - 727 -->
	<rect x="827" y="720" width="1" height="10" style="fill:#0000ff"/><!-- backend_default_Design_FPGA_Dispatch box2: 727 - 728 -->
	<rect x="828" y="730" width="1" height="10" style="fill:#0000ff"/><!-- backend_default_Intermediate_Profiling_Results_Analyzer_ZParAnalyzer box2: 728 - 729 -->
	<rect x="828" y="740" width="34" height="10" style="fill:#00ff00"/><!-- backend_default_U0_M0_F00_Original box1: 728 - 762 -->
	<rect x="862" y="740" width="1203" height="10" style="fill:#0000ff"/><!-- backend_default_U0_M0_F00_Original box2: 762 - 1965 -->
	<rect x="2065" y="740" width="1" height="10" style="fill:#ff00ff"/><!-- backend_default_U0_M0_F00_Original box3: 1965 - 1966 -->
	<rect x="828" y="750" width="34" height="10" style="fill:#00ff00"/><!-- backend_default_U0_M0_F01_Original box1: 728 - 762 -->
	<rect x="862" y="750" width="2820" height="10" style="fill:#0000ff"/><!-- backend_default_U0_M0_F01_Original box2: 762 - 3582 -->
	<rect x="836" y="760" width="26" height="10" style="fill:#00ff00"/><!-- backend_default_zTime box1: 736 - 762 -->
	<rect x="862" y="760" width="3" height="10" style="fill:#0000ff"/><!-- backend_default_zTime box2: 762 - 765 -->
	<rect x="865" y="760" width="1" height="10" style="fill:#ff00ff"/><!-- backend_default_zTime box3: 765 - 766 -->
	<rect x="866" y="770" width="20" height="10" style="fill:#00ff00"/><!-- backend_default_zPertagram box1: 766 - 786 -->
	<rect x="886" y="770" width="4" height="10" style="fill:#0000ff"/><!-- backend_default_zPertagram box2: 786 - 790 -->
	<rect x="2066" y="780" width="2" height="10" style="fill:#00ff00"/><!-- backend_default_U0_M0_F00_Finish box1: 1966 - 1968 -->
	<rect x="2068" y="780" width="31" height="10" style="fill:#0000ff"/><!-- backend_default_U0_M0_F00_Finish box2: 1968 - 1999 -->
	<rect x="2099" y="790" width="28" height="10" style="fill:#00ff00"/><!-- backend_default_U0_M0_F00_zFpgaTiming box1: 1999 - 2027 -->
	<rect x="2127" y="790" width="33" height="10" style="fill:#0000ff"/><!-- backend_default_U0_M0_F00_zFpgaTiming box2: 2027 - 2060 -->
	<rect x="2160" y="790" width="1" height="10" style="fill:#ff00ff"/><!-- backend_default_U0_M0_F00_zFpgaTiming box3: 2060 - 2061 -->
	<rect x="3683" y="800" width="1" height="10" style="fill:#00ff00"/><!-- backend_default_U0_M0_F01_Finish box1: 3583 - 3584 -->
	<rect x="3684" y="800" width="31" height="10" style="fill:#0000ff"/><!-- backend_default_U0_M0_F01_Finish box2: 3584 - 3615 -->
	<rect x="3715" y="810" width="1" height="10" style="fill:#0000ff"/><!-- backend_default_PostFpgaCompilationJoin box2: 3615 - 3616 -->
	<rect x="3715" y="820" width="19" height="10" style="fill:#00ff00"/><!-- backend_default_U0_M0_F01_zFpgaTiming box1: 3615 - 3634 -->
	<rect x="3734" y="820" width="64" height="10" style="fill:#0000ff"/><!-- backend_default_U0_M0_F01_zFpgaTiming box2: 3634 - 3698 -->
	<rect x="3798" y="820" width="1" height="10" style="fill:#ff00ff"/><!-- backend_default_U0_M0_F01_zFpgaTiming box3: 3698 - 3699 -->
	<rect x="3716" y="830" width="18" height="10" style="fill:#00ff00"/><!-- backend_default_FpgaResultAnalyzer box1: 3616 - 3634 -->
	<rect x="3734" y="830" width="8" height="10" style="fill:#0000ff"/><!-- backend_default_FpgaResultAnalyzer box2: 3634 - 3642 -->
	<rect x="3717" y="840" width="17" height="10" style="fill:#00ff00"/><!-- backend_default_zDB_Global box1: 3617 - 3634 -->
	<rect x="3734" y="840" width="11" height="10" style="fill:#0000ff"/><!-- backend_default_zDB_Global box2: 3634 - 3645 -->
	<rect x="3745" y="850" width="43" height="10" style="fill:#00ff00"/><!-- backend_default_zPRD_Run box1: 3645 - 3688 -->
	<rect x="3788" y="850" width="1" height="10" style="fill:#0000ff"/><!-- backend_default_zPRD_Run box2: 3688 - 3689 -->
	<rect x="3745" y="860" width="43" height="10" style="fill:#00ff00"/><!-- backend_default_zDbPostProc box1: 3645 - 3688 -->
	<rect x="3788" y="860" width="2" height="10" style="fill:#0000ff"/><!-- backend_default_zDbPostProc box2: 3688 - 3690 -->
	<rect x="3799" y="870" width="29" height="10" style="fill:#00ff00"/><!-- backend_default_zTimeFpga box1: 3699 - 3728 -->
	<rect x="3828" y="870" width="4" height="10" style="fill:#0000ff"/><!-- backend_default_zTimeFpga box2: 3728 - 3732 -->
	<rect x="3832" y="880" width="1" height="10" style="fill:#00ff00"/><!-- backend_default_zAuditReport box1: 3732 - 3733 -->
	<rect x="3833" y="880" width="9" height="10" style="fill:#0000ff"/><!-- backend_default_zAuditReport box2: 3733 - 3742 -->
	<rect x="3832" y="890" width="17" height="10" style="fill:#00ff00"/><!-- backend_default_zPertagram_postFPGA box1: 3732 - 3749 -->
	<rect x="3849" y="890" width="3" height="10" style="fill:#0000ff"/><!-- backend_default_zPertagram_postFPGA box2: 3749 - 3752 -->
</svg>
