<svg width="1100" height="600" style="display: block">
	<polygon points="0,-2147483148 3,188 6,188 10,183 13,180 16,110 20,72 23,72 26,57 30,55 33,54 36,24 40,24 43,24 46,20 50,20 53,20 56,19 60,16 63,14 66,14 70,13 73,11 76,11 80,11 83,11 86,11 90,11 93,11 96,11 100,11 103,11 107,10 110,10 113,10 117,10 120,10 123,10 127,10 130,9 133,9 137,9 140,9 143,9 147,8 150,8 153,8 157,8 160,8 163,8 167,8 170,8 173,8 177,8 180,8 183,8 187,8 190,7 193,7 197,7 200,7 204,7 207,7 210,7 214,6 217,6 220,6 224,6 227,6 230,6 234,6 237,6 240,6 244,6 247,6 250,6 254,6 257,6 260,6 264,6 267,6 270,6 274,6 277,6 280,6 284,6 287,6 290,6 294,6 297,6 301,6 304,6 307,6 311,6 314,6 317,6 321,6 324,6 327,6 331,6 334,6 337,6 341,6 344,6 347,6 351,6 354,6 357,6 361,6 364,6 367,6 371,6 374,6 377,6 381,6 384,6 387,6 391,6 394,6 397,6 401,6 404,6 408,6 411,6 414,6 418,6 421,6 424,6 428,6 431,6 434,6 438,6 441,6 444,6 448,6 451,6 454,6 458,6 461,6 464,6 468,6 471,6 474,6 478,6 481,6 484,6 488,6 491,6 494,6 498,6 501,6 505,6 508,6 511,6 515,6 518,6 521,6 525,6 528,6 531,6 535,6 538,6 541,6 545,6 548,6 551,6 555,6 558,6 561,6 565,6 568,6 571,6 575,6 578,6 581,6 585,6 588,6 591,6 595,6 598,6 602,6 605,6 608,6 612,6 615,6 618,6 622,6 625,6 628,6 632,6 635,6 638,6 642,6 645,6 648,6 652,6 655,6 658,6 662,6 665,6 668,6 672,6 675,6 678,6 682,6 685,6 688,6 692,6 695,6 698,6 702,6 705,6 709,6 712,6 715,6 719,6 722,6 725,6 729,6 732,6 735,6 739,6 742,6 745,6 749,6 752,6 755,6 759,6 762,6 765,6 769,6 772,6 775,6 779,6 782,6 785,6 789,6 792,6 795,6 799,6 802,6 806,6 809,6 812,6 816,6 819,6 822,6 826,6 829,6 832,6 836,6 839,6 842,6 846,6 849,6 852,6 856,6 859,6 862,6 866,6 869,6 872,6 876,6 879,6 882,6 886,6 889,6 892,6 896,6 899,6 903,6 906,6 909,6 913,6 916,6 919,6 923,6 926,6 929,6 933,6 936,6 939,6 943,6 946,6 949,6 953,6 956,6 959,6 963,6 966,6 969,6 973,6 976,6 979,6 983,6 986,6 989,6 993,6 996,6 1000,0 1000,500 0,500" style="fill:#2a7f7f;stroke:#000000;stroke-width:1"/>
	<rect x="100" y="575" width="25" height="25" style="fill:#2a7f7f"/><text x="135" y="587">RSS : max: 180.88MB</text>
<text x="0" y="530">00:00:00</text>
<line x1="0" y1="0" x2="0" y2="510" style="stroke:#000000;stroke-width:1"/>
<text x="111" y="530">00:17:23</text>
<line x1="111" y1="0" x2="111" y2="510" style="stroke:#000000;stroke-width:1"/>
<text x="222" y="530">00:34:46</text>
<line x1="222" y1="0" x2="222" y2="510" style="stroke:#000000;stroke-width:1"/>
<text x="333" y="530">00:52:09</text>
<line x1="333" y1="0" x2="333" y2="510" style="stroke:#000000;stroke-width:1"/>
<text x="444" y="530">01:09:32</text>
<line x1="444" y1="0" x2="444" y2="510" style="stroke:#000000;stroke-width:1"/>
<text x="555" y="530">01:26:55</text>
<line x1="555" y1="0" x2="555" y2="510" style="stroke:#000000;stroke-width:1"/>
<text x="666" y="530">01:44:18</text>
<line x1="666" y1="0" x2="666" y2="510" style="stroke:#000000;stroke-width:1"/>
<text x="777" y="530">02:01:41</text>
<line x1="777" y1="0" x2="777" y2="510" style="stroke:#000000;stroke-width:1"/>
<text x="888" y="530">02:19:04</text>
<line x1="888" y1="0" x2="888" y2="510" style="stroke:#000000;stroke-width:1"/>
<text x="1000" y="530">02:36:27</text>
<line x1="1000" y1="0" x2="1000" y2="510" style="stroke:#000000;stroke-width:1"/>
<text x="1010" y="510">0B</text>
<line x1="0" y1="0" x2="1010" y2="0" style="stroke:#000000;stroke-width:1"/>
<text x="1010" y="455">20.10MB</text>
<line x1="0" y1="55" x2="1010" y2="55" style="stroke:#000000;stroke-width:1"/>
<text x="1010" y="399">40.20MB</text>
<line x1="0" y1="111" x2="1010" y2="111" style="stroke:#000000;stroke-width:1"/>
<text x="1010" y="344">60.29MB</text>
<line x1="0" y1="166" x2="1010" y2="166" style="stroke:#000000;stroke-width:1"/>
<text x="1010" y="288">80.39MB</text>
<line x1="0" y1="222" x2="1010" y2="222" style="stroke:#000000;stroke-width:1"/>
<text x="1010" y="233">100.49MB</text>
<line x1="0" y1="277" x2="1010" y2="277" style="stroke:#000000;stroke-width:1"/>
<text x="1010" y="177">120.59MB</text>
<line x1="0" y1="333" x2="1010" y2="333" style="stroke:#000000;stroke-width:1"/>
<text x="1010" y="122">140.68MB</text>
<line x1="0" y1="388" x2="1010" y2="388" style="stroke:#000000;stroke-width:1"/>
<text x="1010" y="66">160.78MB</text>
<line x1="0" y1="444" x2="1010" y2="444" style="stroke:#000000;stroke-width:1"/>
<text x="1010" y="10">180.88MB</text>
<line x1="0" y1="500" x2="1010" y2="500" style="stroke:#000000;stroke-width:1"/>
</svg>
