<svg width="1100" height="600" style="display: block">
	<polygon points="0,-2147483148 3,91 6,91 10,88 13,85 16,82 20,82 23,81 26,81 30,81 33,81 36,81 40,81 43,81 46,81 50,81 53,64 56,61 60,61 63,61 66,61 70,60 73,59 76,57 80,25 83,25 86,25 90,25 93,25 96,25 100,25 103,25 107,25 110,25 113,19 117,19 120,19 123,19 127,19 130,19 133,19 137,19 140,17 143,17 147,17 150,17 153,17 157,17 160,17 163,13 167,13 170,13 173,13 177,13 180,13 183,13 187,13 190,13 193,10 197,10 200,10 204,10 207,10 210,10 214,10 217,10 220,10 224,10 227,10 230,10 234,10 237,10 240,10 244,10 247,10 250,10 254,10 257,10 260,10 264,10 267,10 270,10 274,10 277,10 280,10 284,10 287,10 290,10 294,10 297,10 301,10 304,10 307,10 311,10 314,10 317,10 321,10 324,10 327,10 331,10 334,10 337,10 341,10 344,10 347,10 351,10 354,10 357,10 361,10 364,10 367,10 371,10 374,10 377,10 381,10 384,10 387,10 391,10 394,10 397,10 401,10 404,10 408,10 411,10 414,10 418,10 421,10 424,10 428,10 431,10 434,10 438,10 441,10 444,10 448,10 451,10 454,10 458,10 461,10 464,10 468,10 471,10 474,10 478,10 481,10 484,10 488,10 491,10 494,10 498,10 501,10 505,10 508,10 511,10 515,10 518,10 521,10 525,10 528,10 531,10 535,10 538,10 541,10 545,10 548,10 551,10 555,10 558,10 561,10 565,10 568,10 571,10 575,10 578,10 581,10 585,10 588,10 591,10 595,10 598,10 602,10 605,10 608,10 612,10 615,10 618,10 622,10 625,10 628,10 632,10 635,10 638,10 642,10 645,10 648,10 652,10 655,10 658,10 662,10 665,10 668,10 672,10 675,10 678,10 682,10 685,10 688,10 692,10 695,10 698,10 702,10 705,10 709,10 712,10 715,10 719,10 722,10 725,10 729,10 732,10 735,10 739,10 742,10 745,10 749,10 752,10 755,10 759,10 762,10 765,10 769,10 772,10 775,10 779,10 782,10 785,10 789,10 792,10 795,10 799,10 802,10 806,10 809,10 812,10 816,10 819,10 822,10 826,10 829,10 832,10 836,10 839,10 842,10 846,10 849,10 852,10 856,10 859,10 862,10 866,10 869,10 872,10 876,10 879,10 882,10 886,10 889,10 892,10 896,10 899,10 903,10 906,10 909,10 913,10 916,10 919,10 923,10 926,10 929,10 933,10 936,10 939,10 943,10 946,10 949,10 953,10 956,10 959,10 963,10 966,10 969,10 973,10 976,9 979,9 983,9 986,9 989,9 993,9 996,4 1000,0 1000,500 0,500" style="fill:#2a7f7f;stroke:#000000;stroke-width:1"/>
	<rect x="100" y="575" width="25" height="25" style="fill:#2a7f7f"/><text x="135" y="587">RSS : max: 173.57MB</text>
<text x="0" y="530">00:00:00</text>
<line x1="0" y1="0" x2="0" y2="510" style="stroke:#000000;stroke-width:1"/>
<text x="111" y="530">00:06:57</text>
<line x1="111" y1="0" x2="111" y2="510" style="stroke:#000000;stroke-width:1"/>
<text x="222" y="530">00:13:54</text>
<line x1="222" y1="0" x2="222" y2="510" style="stroke:#000000;stroke-width:1"/>
<text x="333" y="530">00:20:51</text>
<line x1="333" y1="0" x2="333" y2="510" style="stroke:#000000;stroke-width:1"/>
<text x="444" y="530">00:27:48</text>
<line x1="444" y1="0" x2="444" y2="510" style="stroke:#000000;stroke-width:1"/>
<text x="555" y="530">00:34:45</text>
<line x1="555" y1="0" x2="555" y2="510" style="stroke:#000000;stroke-width:1"/>
<text x="666" y="530">00:41:42</text>
<line x1="666" y1="0" x2="666" y2="510" style="stroke:#000000;stroke-width:1"/>
<text x="777" y="530">00:48:39</text>
<line x1="777" y1="0" x2="777" y2="510" style="stroke:#000000;stroke-width:1"/>
<text x="888" y="530">00:55:36</text>
<line x1="888" y1="0" x2="888" y2="510" style="stroke:#000000;stroke-width:1"/>
<text x="1000" y="530">01:02:33</text>
<line x1="1000" y1="0" x2="1000" y2="510" style="stroke:#000000;stroke-width:1"/>
<text x="1010" y="510">0B</text>
<line x1="0" y1="0" x2="1010" y2="0" style="stroke:#000000;stroke-width:1"/>
<text x="1010" y="455">19.29MB</text>
<line x1="0" y1="55" x2="1010" y2="55" style="stroke:#000000;stroke-width:1"/>
<text x="1010" y="399">38.57MB</text>
<line x1="0" y1="111" x2="1010" y2="111" style="stroke:#000000;stroke-width:1"/>
<text x="1010" y="344">57.86MB</text>
<line x1="0" y1="166" x2="1010" y2="166" style="stroke:#000000;stroke-width:1"/>
<text x="1010" y="288">77.14MB</text>
<line x1="0" y1="222" x2="1010" y2="222" style="stroke:#000000;stroke-width:1"/>
<text x="1010" y="233">96.43MB</text>
<line x1="0" y1="277" x2="1010" y2="277" style="stroke:#000000;stroke-width:1"/>
<text x="1010" y="177">115.71MB</text>
<line x1="0" y1="333" x2="1010" y2="333" style="stroke:#000000;stroke-width:1"/>
<text x="1010" y="122">135.00MB</text>
<line x1="0" y1="388" x2="1010" y2="388" style="stroke:#000000;stroke-width:1"/>
<text x="1010" y="66">154.28MB</text>
<line x1="0" y1="444" x2="1010" y2="444" style="stroke:#000000;stroke-width:1"/>
<text x="1010" y="10">173.57MB</text>
<line x1="0" y1="500" x2="1010" y2="500" style="stroke:#000000;stroke-width:1"/>
</svg>
